#define bullet_long_width 7
#define bullet_long_height 6
static unsigned char bullet_long_bits[] = {
   0x10, 0x30, 0x7f, 0x7f, 0x30, 0x10 };
