#define bullet_width 4
#define bullet_height 6
static unsigned char bullet_bits[] = {
   0x03, 0x07, 0x0f, 0x0f, 0x07, 0x03 };
