#define circle_width 7
#define circle_height 7
static unsigned char circle_bits[] = {
   0x1c, 0x22, 0x41, 0x41, 0x41, 0x22, 0x1c };
