#define shade_width 13
#define shade_height 12
static unsigned char shade_bits[] = {
   0x00, 0x00, 0xfc, 0x07, 0xfc, 0x07, 0xfc, 0x07, 0x40, 0x00, 0xe0, 0x00,
   0xf0, 0x01, 0xf8, 0x03, 0x00, 0x00, 0x00, 0x00, 0x00, 0x00, 0x00, 0x00 };
