#define close_width 15
#define close_height 15
static unsigned char close_bits[] = {
   0xfc, 0x1f, 0x02, 0x20, 0x01, 0x40, 0x01, 0x40, 0x31, 0x46, 0x71, 0x47,
   0xe1, 0x43, 0xc1, 0x41, 0xe1, 0x43, 0x71, 0x47, 0x31, 0x46, 0x01, 0x40,
   0x01, 0x40, 0x02, 0x20, 0xfc, 0x1f };
