#define iconify_width 15
#define iconify_height 15
static unsigned char iconify_bits[] = {
   0xfc, 0x1f, 0x02, 0x20, 0x01, 0x40, 0x01, 0x40, 0x01, 0x40, 0x01, 0x40,
   0x01, 0x40, 0x01, 0x40, 0x01, 0x40, 0xf1, 0x47, 0xf1, 0x47, 0x01, 0x40,
   0x01, 0x40, 0x02, 0x20, 0xfc, 0x1f };
