#define max_width 15
#define max_height 15
static unsigned char max_bits[] = {
   0xfc, 0x1f, 0x02, 0x20, 0x01, 0x40, 0x01, 0x40, 0xf1, 0x47, 0xf1, 0x47,
   0x11, 0x44, 0x11, 0x44, 0x11, 0x44, 0x11, 0x44, 0xf1, 0x47, 0x01, 0x40,
   0x01, 0x40, 0x02, 0x20, 0xfc, 0x1f };
