#define iconify_width 11
#define iconify_height 9
static unsigned char iconify_bits[] = {
   0xff, 0x07, 0xff, 0x07, 0xff, 0x07, 0xff, 0x07, 0xff, 0x07, 0xff, 0x07,
   0x03, 0x06, 0x03, 0x06, 0xff, 0x07 };
