#define max_width 11
#define max_height 9
static unsigned char max_bits[] = {
   0xff, 0x07, 0x03, 0x06, 0x03, 0x06, 0xfb, 0x06, 0xfb, 0x06, 0xfb, 0x06,
   0xfb, 0x06, 0x03, 0x06, 0xff, 0x07 };
