#define max_width 5
#define max_height 5
static unsigned char max_bits[] = {
   0x1e, 0x12, 0x17, 0x1d, 0x07 };
