#define close_inactive_width 6
#define close_inactive_height 6
static unsigned char close_inactive_bits[] = {
   0x21, 0x12, 0x0c, 0x0c, 0x12, 0x21 };
