#define iconify_width 12
#define iconify_height 12
static unsigned char iconify_bits[] = {
   0x00, 0x00, 0x00, 0x00, 0x00, 0x00, 0x88, 0x00, 0x50, 0x00, 0xa8, 0x00,
   0x50, 0x00, 0x20, 0x00, 0x00, 0x00, 0x00, 0x00, 0x00, 0x00, 0x00, 0x00 };
