#define bullet_long2_width 8
#define bullet_long2_height 7
static unsigned char bullet_long2_bits[] = {
   0x10, 0x30, 0x7f, 0xff, 0x7f, 0x30, 0x10 };
