#define bullet_bite_width 5
#define bullet_bite_height 9
static unsigned char bullet_bite_bits[] = {
   0x01, 0x03, 0x07, 0x0e, 0x1c, 0x0e, 0x07, 0x03, 0x01 };
