<?xml version="1.0" encoding="UTF-8" standalone="no"?>
<!-- Created with Inkscape (http://www.inkscape.org/) -->
<svg
   xmlns:dc="http://purl.org/dc/elements/1.1/"
   xmlns:cc="http://web.resource.org/cc/"
   xmlns:rdf="http://www.w3.org/1999/02/22-rdf-syntax-ns#"
   xmlns:svg="http://www.w3.org/2000/svg"
   xmlns="http://www.w3.org/2000/svg"
   xmlns:xlink="http://www.w3.org/1999/xlink"
   xmlns:sodipodi="http://sodipodi.sourceforge.net/DTD/sodipodi-0.dtd"
   xmlns:inkscape="http://www.inkscape.org/namespaces/inkscape"
   sodipodi:docname="joy.svg"
   sodipodi:docbase="/home/david/.icons/Tango-PLUS/scalable/apps"
   inkscape:version="0.44"
   sodipodi:version="0.32"
   id="svg2913"
   height="48px"
   width="48px">
  <defs
     id="defs3">
    <linearGradient
       id="linearGradient2843">
      <stop
         style="stop-color:#a40000;stop-opacity:1;"
         offset="0"
         id="stop2845" />
      <stop
         style="stop-color:#f70000;stop-opacity:1;"
         offset="1"
         id="stop2847" />
    </linearGradient>
    <linearGradient
       id="linearGradient2836">
      <stop
         style="stop-color:#a40000;stop-opacity:1;"
         offset="0"
         id="stop2838" />
      <stop
         style="stop-color:#fa0000;stop-opacity:1;"
         offset="1"
         id="stop2840" />
    </linearGradient>
    <linearGradient
       id="linearGradient2828">
      <stop
         style="stop-color:#f20000;stop-opacity:1;"
         offset="0"
         id="stop2830" />
      <stop
         style="stop-color:#9a0000;stop-opacity:1;"
         offset="1"
         id="stop2832" />
    </linearGradient>
    <radialGradient
       inkscape:collect="always"
       xlink:href="#linearGradient5060"
       id="radialGradient6719"
       gradientUnits="userSpaceOnUse"
       gradientTransform="matrix(-2.774389,0,0,1.969706,112.7623,-872.8854)"
       cx="605.71429"
       cy="486.64789"
       fx="605.71429"
       fy="486.64789"
       r="117.14286" />
    <linearGradient
       inkscape:collect="always"
       id="linearGradient5060">
      <stop
         style="stop-color:black;stop-opacity:1;"
         offset="0"
         id="stop5062" />
      <stop
         style="stop-color:black;stop-opacity:0;"
         offset="1"
         id="stop5064" />
    </linearGradient>
    <radialGradient
       inkscape:collect="always"
       xlink:href="#linearGradient5060"
       id="radialGradient6717"
       gradientUnits="userSpaceOnUse"
       gradientTransform="matrix(2.774389,0,0,1.969706,-1891.633,-872.8854)"
       cx="605.71429"
       cy="486.64789"
       fx="605.71429"
       fy="486.64789"
       r="117.14286" />
    <linearGradient
       id="linearGradient5048">
      <stop
         style="stop-color:black;stop-opacity:0;"
         offset="0"
         id="stop5050" />
      <stop
         id="stop5056"
         offset="0.5"
         style="stop-color:black;stop-opacity:1;" />
      <stop
         style="stop-color:black;stop-opacity:0;"
         offset="1"
         id="stop5052" />
    </linearGradient>
    <linearGradient
       inkscape:collect="always"
       xlink:href="#linearGradient5048"
       id="linearGradient6715"
       gradientUnits="userSpaceOnUse"
       gradientTransform="matrix(2.774389,0,0,1.969706,-1892.179,-872.8854)"
       x1="302.85715"
       y1="366.64789"
       x2="302.85715"
       y2="609.50507" />
    <linearGradient
       id="linearGradient2510"
       inkscape:collect="always">
      <stop
         id="stop2512"
         offset="0"
         style="stop-color:#ffffff;stop-opacity:1;" />
      <stop
         id="stop2514"
         offset="1"
         style="stop-color:#ffffff;stop-opacity:0;" />
    </linearGradient>
    <linearGradient
       id="linearGradient5411"
       inkscape:collect="always">
      <stop
         id="stop5413"
         offset="0"
         style="stop-color:#ffffff;stop-opacity:1;" />
      <stop
         id="stop5415"
         offset="1"
         style="stop-color:#ffffff;stop-opacity:0;" />
    </linearGradient>
    <linearGradient
       id="linearGradient5069"
       inkscape:collect="always">
      <stop
         id="stop5071"
         offset="0"
         style="stop-color:#000000;stop-opacity:1;" />
      <stop
         id="stop5073"
         offset="1"
         style="stop-color:#000000;stop-opacity:0;" />
    </linearGradient>
    <linearGradient
       id="linearGradient5018">
      <stop
         id="stop5020"
         offset="0"
         style="stop-color:#aaaaaa;stop-opacity:1;" />
      <stop
         id="stop5022"
         offset="1.0000000"
         style="stop-color:#cdcdcd;stop-opacity:1.0000000;" />
    </linearGradient>
    <linearGradient
       id="linearGradient4990">
      <stop
         id="stop4992"
         offset="0.0000000"
         style="stop-color:#ff8a2b;stop-opacity:1.0000000;" />
      <stop
         id="stop4994"
         offset="1.0000000"
         style="stop-color:#833a00;stop-opacity:1.0000000;" />
    </linearGradient>
    <linearGradient
       id="linearGradient4264"
       inkscape:collect="always">
      <stop
         id="stop4266"
         offset="0"
         style="stop-color:#000000;stop-opacity:1;" />
      <stop
         id="stop4268"
         offset="1"
         style="stop-color:#000000;stop-opacity:0;" />
    </linearGradient>
    <linearGradient
       id="linearGradient4254"
       inkscape:collect="always">
      <stop
         id="stop4256"
         offset="0"
         style="stop-color:#ffffff;stop-opacity:1;" />
      <stop
         id="stop4258"
         offset="1"
         style="stop-color:#ffffff;stop-opacity:0;" />
    </linearGradient>
    <linearGradient
       id="linearGradient4244">
      <stop
         id="stop4246"
         offset="0.0000000"
         style="stop-color:#e4e4e4;stop-opacity:1.0000000;" />
      <stop
         id="stop4248"
         offset="1.0000000"
         style="stop-color:#d3d3d3;stop-opacity:1.0000000;" />
    </linearGradient>
    <linearGradient
       id="linearGradient4228">
      <stop
         id="stop4230"
         offset="0.0000000"
         style="stop-color:#bbbbbb;stop-opacity:1.0000000;" />
      <stop
         id="stop4232"
         offset="1.0000000"
         style="stop-color:#9f9f9f;stop-opacity:1.0000000;" />
    </linearGradient>
    <radialGradient
       inkscape:collect="always"
       xlink:href="#linearGradient4264"
       id="radialGradient1464"
       gradientUnits="userSpaceOnUse"
       gradientTransform="matrix(1.000000,0.000000,0.000000,0.651032,-8.174347e-16,9.455693)"
       cx="23.201941"
       cy="27.096155"
       fx="23.201941"
       fy="27.096155"
       r="23.555494" />
    <radialGradient
       inkscape:collect="always"
       xlink:href="#linearGradient5069"
       id="radialGradient1470"
       gradientUnits="userSpaceOnUse"
       gradientTransform="matrix(1,0,0,0.624277,0,12.28944)"
       cx="10.363534"
       cy="32.708817"
       fx="10.363534"
       fy="32.708817"
       r="3.8227961" />
    <linearGradient
       inkscape:collect="always"
       xlink:href="#linearGradient5411"
       id="linearGradient1476"
       gradientUnits="userSpaceOnUse"
       x1="24.237061"
       y1="31.712437"
       x2="24.237061"
       y2="28.359171" />
    <linearGradient
       inkscape:collect="always"
       xlink:href="#linearGradient2510"
       id="linearGradient1489"
       gradientUnits="userSpaceOnUse"
       x1="21.057629"
       y1="2.4374962"
       x2="26.286110"
       y2="29.562496"
       gradientTransform="matrix(0.832037,0,0,0.87235,4.094088,3.029123)" />
    <linearGradient
       inkscape:collect="always"
       xlink:href="#linearGradient5018"
       id="linearGradient1496"
       gradientUnits="userSpaceOnUse"
       gradientTransform="matrix(0.832037,0,0,0.87235,4.094088,2.483904)"
       x1="26.312500"
       y1="17.500000"
       x2="23.062500"
       y2="17.500000" />
    <linearGradient
       inkscape:collect="always"
       xlink:href="#linearGradient5018"
       id="linearGradient1501"
       gradientUnits="userSpaceOnUse"
       gradientTransform="matrix(0.832037,0,0,0.87235,4.094088,2.483904)"
       x1="28.468750"
       y1="28.125000"
       x2="20.000000"
       y2="26.375000" />
    <linearGradient
       inkscape:collect="always"
       xlink:href="#linearGradient4254"
       id="linearGradient1507"
       gradientUnits="userSpaceOnUse"
       gradientTransform="matrix(0.832037,0,0,0.87235,4.094088,10.05631)"
       x1="12.378357"
       y1="4.4331360"
       x2="44.096100"
       y2="47.620636" />
    <radialGradient
       inkscape:collect="always"
       xlink:href="#linearGradient4244"
       id="radialGradient1512"
       gradientUnits="userSpaceOnUse"
       gradientTransform="matrix(1.070201,0.681914,-0.591397,1.020259,2.135183,5.801976)"
       cx="15.571491"
       cy="2.9585190"
       fx="15.571491"
       fy="2.9585190"
       r="20.935817" />
    <linearGradient
       inkscape:collect="always"
       xlink:href="#linearGradient4228"
       id="linearGradient1516"
       gradientUnits="userSpaceOnUse"
       gradientTransform="matrix(0.832037,0,0,0.87235,4.094088,10.05631)"
       x1="7.6046205"
       y1="28.481176"
       x2="36.183067"
       y2="40.943935" />
    <linearGradient
       inkscape:collect="always"
       xlink:href="#linearGradient2828"
       id="linearGradient2834"
       x1="21.843248"
       y1="1.7728944"
       x2="26.267584"
       y2="8.4020205"
       gradientUnits="userSpaceOnUse" />
    <linearGradient
       inkscape:collect="always"
       xlink:href="#linearGradient2836"
       id="linearGradient2842"
       x1="31.024309"
       y1="18.577332"
       x2="11.357348"
       y2="-16.882086"
       gradientUnits="userSpaceOnUse" />
    <radialGradient
       inkscape:collect="always"
       xlink:href="#linearGradient2828"
       id="radialGradient2849"
       cx="22.884556"
       cy="5.2322187"
       fx="22.884556"
       fy="5.2322187"
       r="6.6291261"
       gradientUnits="userSpaceOnUse" />
  </defs>
  <sodipodi:namedview
     inkscape:window-y="0"
     inkscape:window-x="0"
     inkscape:window-height="712"
     inkscape:window-width="1024"
     inkscape:document-units="px"
     inkscape:grid-bbox="true"
     showgrid="false"
     inkscape:current-layer="layer2"
     inkscape:cy="24.25989"
     inkscape:cx="24.375003"
     inkscape:zoom="12.334041"
     inkscape:pageshadow="2"
     inkscape:pageopacity="0.0"
     borderopacity="1.0"
     bordercolor="#666666"
     pagecolor="#ffffff"
     id="base"
     inkscape:showpageshadow="false" />
  <metadata
     id="metadata4">
    <rdf:RDF>
      <cc:Work
         rdf:about="">
        <dc:format>image/svg+xml</dc:format>
        <dc:type
           rdf:resource="http://purl.org/dc/dcmitype/StillImage" />
        <dc:title>Input - Gaming</dc:title>
        <dc:creator>
          <cc:Agent>
            <dc:title>Jakub Steiner</dc:title>
          </cc:Agent>
        </dc:creator>
        <dc:subject>
          <rdf:Bag>
            <rdf:li>gaming</rdf:li>
            <rdf:li>controller</rdf:li>
            <rdf:li>joystick</rdf:li>
            <rdf:li>game</rdf:li>
            <rdf:li>gaming</rdf:li>
            <rdf:li>HID</rdf:li>
          </rdf:Bag>
        </dc:subject>
        <cc:license
           rdf:resource="http://creativecommons.org/licenses/by-sa/2.0/" />
        <dc:identifier />
        <dc:source>http://jimmac.musichall.cz</dc:source>
      </cc:Work>
      <cc:License
         rdf:about="http://creativecommons.org/licenses/by-sa/2.0/">
        <cc:permits
           rdf:resource="http://web.resource.org/cc/Reproduction" />
        <cc:permits
           rdf:resource="http://web.resource.org/cc/Distribution" />
        <cc:requires
           rdf:resource="http://web.resource.org/cc/Notice" />
        <cc:requires
           rdf:resource="http://web.resource.org/cc/Attribution" />
        <cc:permits
           rdf:resource="http://web.resource.org/cc/DerivativeWorks" />
        <cc:requires
           rdf:resource="http://web.resource.org/cc/ShareAlike" />
      </cc:License>
    </rdf:RDF>
  </metadata>
  <g
     inkscape:label="pix"
     id="layer2"
     inkscape:groupmode="layer">
    <g
       transform="matrix(1.958815e-2,0,0,1.820383e-2,41.7974,38.16616)"
       id="g6707">
      <rect
         style="opacity:0.40206185;color:black;fill:url(#linearGradient6715);fill-opacity:1;fill-rule:nonzero;stroke:none;stroke-width:1;stroke-linecap:round;stroke-linejoin:miter;marker:none;marker-start:none;marker-mid:none;marker-end:none;stroke-miterlimit:4;stroke-dasharray:none;stroke-dashoffset:0;stroke-opacity:1;visibility:visible;display:inline;overflow:visible"
         id="rect6709"
         width="1339.6335"
         height="478.35718"
         x="-1559.2523"
         y="-150.69685" />
      <path
         style="opacity:0.40206185;color:black;fill:url(#radialGradient6717);fill-opacity:1;fill-rule:nonzero;stroke:none;stroke-width:1;stroke-linecap:round;stroke-linejoin:miter;marker:none;marker-start:none;marker-mid:none;marker-end:none;stroke-miterlimit:4;stroke-dasharray:none;stroke-dashoffset:0;stroke-opacity:1;visibility:visible;display:inline;overflow:visible"
         d="M -219.61876,-150.68038 C -219.61876,-150.68038 -219.61876,327.65041 -219.61876,327.65041 C -76.744594,328.55086 125.78146,220.48075 125.78138,88.454235 C 125.78138,-43.572302 -33.655436,-150.68036 -219.61876,-150.68038 z "
         id="path6711"
         sodipodi:nodetypes="cccc" />
      <path
         sodipodi:nodetypes="cccc"
         id="path6713"
         d="M -1559.2523,-150.68038 C -1559.2523,-150.68038 -1559.2523,327.65041 -1559.2523,327.65041 C -1702.1265,328.55086 -1904.6525,220.48075 -1904.6525,88.454235 C -1904.6525,-43.572302 -1745.2157,-150.68036 -1559.2523,-150.68038 z "
         style="opacity:0.40206185;color:black;fill:url(#radialGradient6719);fill-opacity:1;fill-rule:nonzero;stroke:none;stroke-width:1;stroke-linecap:round;stroke-linejoin:miter;marker:none;marker-start:none;marker-mid:none;marker-end:none;stroke-miterlimit:4;stroke-dasharray:none;stroke-dashoffset:0;stroke-opacity:1;visibility:visible;display:inline;overflow:visible" />
    </g>
    <path
       sodipodi:nodetypes="cccsccccccccc"
       id="path4196"
       d="M 11.82013,22.2366 C 11.300106,22.2366 10.962092,22.489738 10.754083,22.972648 C 10.754083,22.972648 7.0359158,32.658842 7.0359158,32.658842 C 7.0359158,32.658842 6.8279065,33.244677 6.8279065,34.212716 C 6.8279065,34.212716 6.8279065,39.141466 6.8279065,39.141466 C 6.8279065,40.085883 7.3752086,40.559036 8.2059685,40.559035 L 40.29141,40.559035 C 41.110845,40.559035 41.61747,39.93253 41.61747,38.950639 L 41.61747,34.021889 C 41.61747,34.021889 41.705635,33.349811 41.539466,32.87693 L 37.61329,23.108953 C 37.459758,22.662391 37.083361,22.246986 36.677247,22.2366 L 11.82013,22.2366 z "
       style="fill:none;fill-opacity:1;fill-rule:evenodd;stroke:#535353;stroke-width:1.70391059;stroke-linecap:round;stroke-linejoin:round;stroke-miterlimit:4;stroke-dasharray:none;stroke-opacity:1" />
    <path
       sodipodi:nodetypes="ccccccccc"
       id="path4170"
       d="M 6.8178388,33.606977 L 7.4540164,33.003123 L 38.746685,33.057645 L 41.627537,33.33444 L 41.627537,38.951094 C 41.627537,39.932984 41.122476,40.559124 40.303041,40.559124 L 8.2005518,40.559124 C 7.3697918,40.559124 6.8178388,40.086265 6.8178388,39.141848 L 6.8178388,33.606977 z "
       style="fill:url(#linearGradient1516);fill-opacity:1;fill-rule:evenodd;stroke:none;stroke-width:1.02044296px;stroke-linecap:butt;stroke-linejoin:miter;stroke-opacity:1" />
    <path
       id="path5030"
       d="M 24.531007,20.258036 C 22.347196,20.258036 20.612318,21.175673 20.474825,22.329867 L 20.422822,22.329867 C 20.422822,22.329867 19.356775,26.855183 19.356775,26.855183 C 19.174766,27.809316 21.086368,29.499494 24.531007,29.499494 C 28.001762,29.499494 29.991253,27.782055 29.653238,26.500791 C 29.653238,26.500791 28.665193,22.329867 28.665193,22.329867 L 28.613191,22.329867 C 28.477036,21.174982 26.715741,20.258037 24.531007,20.258036 z "
       style="opacity:1;color:black;fill:none;fill-opacity:1;fill-rule:evenodd;stroke:#666;stroke-width:1.70391059;stroke-linecap:butt;stroke-linejoin:miter;marker:none;marker-start:none;marker-mid:none;marker-end:none;stroke-miterlimit:4;stroke-dasharray:none;stroke-dashoffset:0;stroke-opacity:1;visibility:visible;display:inline;overflow:visible;font-family:Bitstream Vera Sans" />
    <path
       sodipodi:nodetypes="csccccccs"
       id="path3093"
       d="M 7.0470591,32.662738 C 6.4527466,33.940108 7.0465469,34.750147 7.9088121,34.750147 C 7.9088121,34.750147 40.35827,34.750147 40.35827,34.750147 C 41.289359,34.729377 41.893577,33.867412 41.546895,32.880825 L 37.624432,23.101166 C 37.470901,22.654604 37.079646,22.239198 36.673532,22.228812 L 11.831273,22.228812 C 11.31125,22.228812 10.96952,22.493634 10.761512,22.976544 C 10.761512,22.976544 7.0470591,32.662738 7.0470591,32.662738 z "
       style="fill:url(#radialGradient1512);fill-opacity:1;fill-rule:evenodd;stroke:none;stroke-width:1px;stroke-linecap:butt;stroke-linejoin:miter;stroke-opacity:1" />
    <path
       transform="matrix(0.832037,0,0,0.87235,4.222787,3.279715)"
       d="M 14.18633 32.708817 A 3.8227961 2.3864853 0 1 1  6.5407379,32.708817 A 3.8227961 2.3864853 0 1 1  14.18633 32.708817 z"
       sodipodi:ry="2.3864853"
       sodipodi:rx="3.8227961"
       sodipodi:cy="32.708817"
       sodipodi:cx="10.363534"
       id="path5067"
       style="opacity:1;color:black;fill:url(#radialGradient1470);fill-opacity:1;fill-rule:evenodd;stroke:none;stroke-width:2;stroke-linecap:butt;stroke-linejoin:miter;marker:none;marker-start:none;marker-mid:none;marker-end:none;stroke-miterlimit:4;stroke-dasharray:none;stroke-dashoffset:0;stroke-opacity:1;visibility:visible;display:inline;overflow:visible;font-family:Bitstream Vera Sans"
       sodipodi:type="arc" />
    <path
       sodipodi:nodetypes="cccccccc"
       id="path4201"
       d="M 41.366171,32.413494 C 41.419024,33.503909 41.021705,34.433717 40.266121,34.458064 C 40.266121,34.458064 8.5499228,34.458063 8.5499229,34.458064 C 7.4772337,34.458064 6.9958967,34.174597 6.8159147,33.700816 C 6.8922637,34.524604 7.5030257,35.139588 8.5499229,35.139588 C 8.5499228,35.139587 40.266121,35.139588 40.266121,35.139588 C 41.161399,35.110738 41.72452,33.89734 41.391172,32.527082 L 41.366171,32.413494 z "
       style="fill:white;fill-opacity:1;fill-rule:evenodd;stroke:none;stroke-width:1px;stroke-linecap:butt;stroke-linejoin:miter;stroke-opacity:1" />
    <path
       style="fill:none;fill-opacity:1;fill-rule:evenodd;stroke:url(#linearGradient1507);stroke-width:0.85195553;stroke-linecap:round;stroke-linejoin:round;stroke-miterlimit:4;stroke-dasharray:none;stroke-opacity:1"
       d="M 12.117021,22.631857 C 11.616391,22.631857 11.290982,22.875556 11.090732,23.340456 C 11.090731,23.340456 7.417274,32.579279 7.417274,32.579279 C 7.417274,32.579279 7.2170219,33.143266 7.2170219,34.075205 C 7.2170219,34.075205 7.2170219,38.69002 7.2170219,38.69002 C 7.2170219,39.871828 7.5864932,40.109246 8.5436924,40.109246 L 39.900607,40.109246 C 41.001497,40.109246 41.177215,39.833237 41.177215,38.506309 L 41.177215,33.891494 C 41.177215,33.891494 41.262091,33.24448 41.10212,32.789233 L 37.280413,23.362635 C 37.132607,22.932727 36.82225,22.641855 36.431281,22.631857 L 12.117021,22.631857 z "
       id="path4252"
       sodipodi:nodetypes="cccsccccccccc" />
    <path
       transform="matrix(1.315702,0,0,1.379448,-7.790485,-11.44378)"
       d="M 31.819805 28.377787 A 7.2478447 3.7123106 0 1 1  17.324116,28.377787 A 7.2478447 3.7123106 0 1 1  31.819805 28.377787 z"
       sodipodi:ry="3.7123106"
       sodipodi:rx="7.2478447"
       sodipodi:cy="28.377787"
       sodipodi:cx="24.57196"
       id="path4341"
       style="opacity:1;color:black;fill:white;fill-opacity:0.48022593;fill-rule:evenodd;stroke:none;stroke-width:1px;stroke-linecap:butt;stroke-linejoin:miter;marker:none;marker-start:none;marker-mid:none;marker-end:none;stroke-miterlimit:4;stroke-dasharray:none;stroke-dashoffset:0;stroke-opacity:1;visibility:visible;display:inline;overflow:visible;font-family:Bitstream Vera Sans"
       sodipodi:type="arc" />
    <path
       sodipodi:type="arc"
       style="opacity:1;color:black;fill:#c9c9c9;fill-opacity:1;fill-rule:evenodd;stroke:none;stroke-width:1px;stroke-linecap:butt;stroke-linejoin:miter;marker:none;marker-start:none;marker-mid:none;marker-end:none;stroke-miterlimit:4;stroke-dasharray:none;stroke-dashoffset:0;stroke-opacity:1;visibility:visible;display:inline;overflow:visible;font-family:Bitstream Vera Sans"
       id="path4343"
       sodipodi:cx="24.57196"
       sodipodi:cy="28.377787"
       sodipodi:rx="7.2478447"
       sodipodi:ry="3.7123106"
       d="M 31.819805 28.377787 A 7.2478447 3.7123106 0 1 1  17.324116,28.377787 A 7.2478447 3.7123106 0 1 1  31.819805 28.377787 z"
       transform="matrix(0.710276,0,0,0.744689,7.086009,5.58788)" />
    <path
       sodipodi:nodetypes="ccccccccccc"
       id="path4659"
       d="M 24.531007,4.2013429 C 21.486351,4.2013429 19.018759,6.7884911 19.018759,9.9806619 C 19.018759,12.255366 20.315967,14.161615 22.1389,15.105718 L 22.1389,22.493433 C 22.1389,22.493433 22.1389,22.52452 22.1389,22.547955 C 22.1389,23.258019 23.208755,23.82922 24.531007,23.829219 C 25.853259,23.829219 26.923115,23.258019 26.923115,22.547955 L 26.923115,22.493433 L 26.923115,15.132979 C 28.762285,14.195025 30.043255,12.267837 30.043255,9.9806619 C 30.043255,6.7884909 27.575663,4.2013429 24.531007,4.2013429 z "
       style="opacity:1;color:black;fill:none;fill-opacity:1;fill-rule:evenodd;stroke:#666;stroke-width:1.70391059;stroke-linecap:butt;stroke-linejoin:miter;marker:none;marker-start:none;marker-mid:none;marker-end:none;stroke-miterlimit:4;stroke-dasharray:none;stroke-dashoffset:0;stroke-opacity:1;visibility:visible;display:inline;overflow:visible;font-family:Bitstream Vera Sans" />
    <path
       sodipodi:nodetypes="cczccc"
       id="path5026"
       d="M 28.665193,22.329867 C 28.665193,22.329867 29.653238,26.500791 29.653238,26.500791 C 29.991253,27.782055 28.001762,29.499494 24.531007,29.499494 C 21.086368,29.499494 19.174766,27.809316 19.356775,26.855183 C 19.356775,26.855183 20.422822,22.329867 20.422822,22.329867 L 28.665193,22.329867 z "
       style="opacity:1;color:black;fill:url(#linearGradient1501);fill-opacity:1;fill-rule:evenodd;stroke:none;stroke-width:1px;stroke-linecap:butt;stroke-linejoin:miter;marker:none;marker-start:none;marker-mid:none;marker-end:none;stroke-miterlimit:4;stroke-dasharray:none;stroke-dashoffset:0;stroke-opacity:1;visibility:visible;display:inline;overflow:visible;font-family:Bitstream Vera Sans" />
    <path
       transform="matrix(0.568221,0,0,0.595751,10.57658,5.5617)"
       d="M 31.819805 28.377787 A 7.2478447 3.7123106 0 1 1  17.324116,28.377787 A 7.2478447 3.7123106 0 1 1  31.819805 28.377787 z"
       sodipodi:ry="3.7123106"
       sodipodi:rx="7.2478447"
       sodipodi:cy="28.377787"
       sodipodi:cx="24.57196"
       id="path4345"
       style="opacity:1;color:black;fill:#e4e4e4;fill-opacity:1;fill-rule:evenodd;stroke:none;stroke-width:1px;stroke-linecap:butt;stroke-linejoin:miter;marker:none;marker-start:none;marker-mid:none;marker-end:none;stroke-miterlimit:4;stroke-dasharray:none;stroke-dashoffset:0;stroke-opacity:1;visibility:visible;display:inline;overflow:visible;font-family:Bitstream Vera Sans"
       sodipodi:type="arc" />
    <path
       transform="matrix(0.633635,0.000000,0.000000,0.633635,9.123852,4.176870)"
       d="M 24.562500,24.656250 C 20.561690,24.656250 17.312500,26.325805 17.312500,28.375000 C 17.312500,30.424195 20.561690,32.093752 24.562500,32.093750 C 28.563310,32.093750 31.812500,30.424195 31.812500,28.375000 C 31.812500,26.325805 28.563310,24.656250 24.562500,24.656250 z "
       inkscape:href="#path4345"
       id="path5419"
       style="opacity:1.0000000;color:#000000;fill:none;fill-opacity:1.0000000;fill-rule:evenodd;stroke:url(#linearGradient1476);stroke-width:1.0777932px;stroke-linecap:butt;stroke-linejoin:miter;marker:none;marker-start:none;marker-mid:none;marker-end:none;stroke-miterlimit:4.0000000;stroke-dasharray:none;stroke-dashoffset:0.0000000;stroke-opacity:1.0000000;visibility:visible;display:inline;overflow:visible;font-family:Bitstream Vera Sans"
       xlink:href="#path4345"
       inkscape:original="M 24.5625 24.65625 C 20.56169 24.65625 17.3125 26.325805 17.3125 28.375 C 17.3125 30.424195 20.56169 32.093752 24.5625 32.09375 C 28.56331 32.09375 31.8125 30.424195 31.8125 28.375 C 31.8125 26.325805 28.56331 24.65625 24.5625 24.65625 z "
       inkscape:radius="0.0000000"
       sodipodi:type="inkscape:offset" />
    <path
       id="path4347"
       d="M 24.531007,8.5085712 C 23.208755,8.5085712 22.1389,9.0797708 22.1389,9.7898353 C 22.1389,9.8132698 22.188594,9.8212301 22.190902,9.8443572 L 22.1389,9.8443572 L 22.1389,21.948214 L 22.190902,21.948214 C 22.188594,21.971341 22.1389,21.979301 22.1389,22.002736 C 22.1389,22.7128 23.208755,23.284001 24.531007,23.284 C 25.853259,23.284 26.923115,22.7128 26.923115,22.002736 C 26.923115,21.979301 26.873421,21.971341 26.871112,21.948214 L 26.923115,21.948214 L 26.923115,9.8443572 L 26.871112,9.8443572 C 26.873421,9.8212301 26.923115,9.8132698 26.923115,9.7898353 C 26.923115,9.0797711 25.853259,8.5085712 24.531007,8.5085712 z "
       style="opacity:1;color:black;fill:url(#linearGradient1496);fill-opacity:1;fill-rule:evenodd;stroke:none;stroke-width:1px;stroke-linecap:butt;stroke-linejoin:miter;marker:none;marker-start:none;marker-mid:none;marker-end:none;stroke-miterlimit:4;stroke-dasharray:none;stroke-dashoffset:0;stroke-opacity:1;visibility:visible;display:inline;overflow:visible;font-family:Bitstream Vera Sans" />
    <path
       transform="matrix(0.80506,0,0,0.844066,4.980352,2.881992)"
       d="M 31.02431 8.4020205 A 6.6291261 6.6291261 0 1 1  17.766057,8.4020205 A 6.6291261 6.6291261 0 1 1  31.02431 8.4020205 z"
       sodipodi:ry="6.6291261"
       sodipodi:rx="6.6291261"
       sodipodi:cy="8.4020205"
       sodipodi:cx="24.395184"
       id="path4641"
       style="opacity:1;color:black;fill:url(#radialGradient2849);fill-opacity:1.0;fill-rule:evenodd;stroke:none;stroke-width:1.07542491;stroke-linecap:butt;stroke-linejoin:miter;marker:none;marker-start:none;marker-mid:none;marker-end:none;stroke-miterlimit:4;stroke-dasharray:none;stroke-dashoffset:0;stroke-opacity:1;visibility:visible;display:inline;overflow:visible;font-family:Bitstream Vera Sans"
       sodipodi:type="arc" />
    <g
       transform="matrix(0.832037,0,0,0.741201,4.768589,7.586453)"
       id="g5049">
      <path
         transform="matrix(0.510331,0,0,0.354752,-2.87767,29.41695)"
         d="M 31.02431 8.4020205 A 6.6291261 6.6291261 0 1 1  17.766057,8.4020205 A 6.6291261 6.6291261 0 1 1  31.02431 8.4020205 z"
         sodipodi:ry="6.6291261"
         sodipodi:rx="6.6291261"
         sodipodi:cy="8.4020205"
         sodipodi:cx="24.395184"
         id="path5039"
         style="opacity:1;color:black;fill:url(#linearGradient2842);fill-opacity:1.0;fill-rule:evenodd;stroke:none;stroke-width:1.07542491;stroke-linecap:butt;stroke-linejoin:miter;marker:none;marker-start:none;marker-mid:none;marker-end:none;stroke-miterlimit:4;stroke-dasharray:none;stroke-dashoffset:0;stroke-opacity:1;visibility:visible;display:inline;overflow:visible;font-family:Bitstream Vera Sans"
         sodipodi:type="arc" />
      <path
         sodipodi:type="arc"
         style="opacity:1;color:black;fill:url(#linearGradient2834);fill-opacity:1.0;fill-rule:evenodd;stroke:none;stroke-width:1.07542491;stroke-linecap:butt;stroke-linejoin:miter;marker:none;marker-start:none;marker-mid:none;marker-end:none;stroke-miterlimit:4;stroke-dasharray:none;stroke-dashoffset:0;stroke-opacity:1;visibility:visible;display:inline;overflow:visible;font-family:Bitstream Vera Sans"
         id="path5045"
         sodipodi:cx="24.395184"
         sodipodi:cy="8.4020205"
         sodipodi:rx="6.6291261"
         sodipodi:ry="6.6291261"
         d="M 31.02431 8.4020205 A 6.6291261 6.6291261 0 1 1  17.766057,8.4020205 A 6.6291261 6.6291261 0 1 1  31.02431 8.4020205 z"
         transform="matrix(0.430193,0,0,0.299045,-0.922674,29.60375)" />
    </g>
    <path
       sodipodi:nodetypes="ccccccccccccc"
       id="path2204"
       d="M 24.531942,4.836529 C 21.798802,4.836529 19.586731,7.1810674 19.586731,10.046628 C 19.586731,12.064172 20.967935,13.765404 22.572639,14.624434 L 22.572639,20.837281 C 21.851066,21.182205 20.781154,21.747308 20.768757,22.304202 C 20.768757,22.304202 19.731469,26.792656 19.731469,26.792656 C 19.562609,27.677868 21.336126,29.245955 24.531942,29.245955 C 27.751986,29.245955 29.597766,27.652576 29.284167,26.463863 L 28.271003,22.228327 C 28.257724,21.631833 27.251185,21.258365 26.439241,20.913156 L 26.439241,14.624434 C 28.043946,13.765404 29.501273,12.064172 29.501274,10.046628 C 29.501274,7.1810675 27.26508,4.836529 24.531942,4.836529 z "
       style="opacity:0.52571429;color:black;fill:none;fill-opacity:1;fill-rule:evenodd;stroke:url(#linearGradient1489);stroke-width:0.85195512px;stroke-linecap:butt;stroke-linejoin:miter;marker:none;marker-start:none;marker-mid:none;marker-end:none;stroke-miterlimit:4;stroke-dasharray:none;stroke-dashoffset:0;stroke-opacity:1;visibility:visible;display:inline;overflow:visible;font-family:Bitstream Vera Sans" />
  </g>
</svg>
