<?xml version="1.0" encoding="UTF-8" standalone="no"?>
<!-- Created with Inkscape (http://www.inkscape.org/) -->
<svg
   xmlns:dc="http://purl.org/dc/elements/1.1/"
   xmlns:cc="http://web.resource.org/cc/"
   xmlns:rdf="http://www.w3.org/1999/02/22-rdf-syntax-ns#"
   xmlns:svg="http://www.w3.org/2000/svg"
   xmlns="http://www.w3.org/2000/svg"
   xmlns:xlink="http://www.w3.org/1999/xlink"
   xmlns:sodipodi="http://sodipodi.sourceforge.net/DTD/sodipodi-0.dtd"
   xmlns:inkscape="http://www.inkscape.org/namespaces/inkscape"
   width="48px"
   height="48px"
   id="svg1943"
   sodipodi:version="0.32"
   inkscape:version="0.44+devel"
   sodipodi:docbase="/home/david/.icons/Tango-PLUS/scalable/apps"
   sodipodi:docname="muine.svg">
  <defs
     id="defs1945">
    <linearGradient
       inkscape:collect="always"
       id="linearGradient2242">
      <stop
         style="stop-color:#000000;stop-opacity:1;"
         offset="0"
         id="stop2244" />
      <stop
         style="stop-color:#000000;stop-opacity:0;"
         offset="1"
         id="stop2246" />
    </linearGradient>
    <radialGradient
       inkscape:collect="always"
       xlink:href="#linearGradient2242"
       id="radialGradient2248"
       cx="25.1875"
       cy="41"
       fx="25.1875"
       fy="41"
       r="16.4375"
       gradientTransform="matrix(1,0,0,0.425856,0,23.53992)"
       gradientUnits="userSpaceOnUse" />
    <linearGradient
       id="linearGradient2232">
      <stop
         style="stop-color:#b0b0b0;stop-opacity:1;"
         offset="0"
         id="stop2234" />
      <stop
         style="stop-color:#747474;stop-opacity:1;"
         offset="1"
         id="stop2236" />
    </linearGradient>
    <radialGradient
       inkscape:collect="always"
       xlink:href="#linearGradient2232"
       id="radialGradient2238"
       cx="15.4375"
       cy="42.090427"
       fx="15.4375"
       fy="42.090427"
       r="11.1875"
       gradientTransform="matrix(1,0,0,0.52514,0,22.02165)"
       gradientUnits="userSpaceOnUse" />
    <linearGradient
       inkscape:collect="always"
       id="linearGradient2252">
      <stop
         style="stop-color:#c6c6c6;stop-opacity:1;"
         offset="0"
         id="stop2254" />
      <stop
         style="stop-color:#c6c6c6;stop-opacity:0;"
         offset="1"
         id="stop2256" />
    </linearGradient>
    <linearGradient
       inkscape:collect="always"
       xlink:href="#linearGradient2252"
       id="linearGradient2258"
       x1="41.25"
       y1="36.689548"
       x2="48.25"
       y2="35.689548"
       gradientUnits="userSpaceOnUse"
       gradientTransform="matrix(0.930736,0,0,0.930736,1.71699,2.07877)" />
    <linearGradient
       id="linearGradient2345">
      <stop
         style="stop-color:#d5d5d5;stop-opacity:1;"
         offset="0"
         id="stop2347" />
      <stop
         style="stop-color:#a0a0a0;stop-opacity:1;"
         offset="1"
         id="stop2349" />
    </linearGradient>
    <radialGradient
       inkscape:collect="always"
       xlink:href="#linearGradient2345"
       id="radialGradient2351"
       cx="19.557497"
       cy="6.644074"
       fx="19.557497"
       fy="6.644074"
       r="10.98921"
       gradientTransform="matrix(1.388581,-7.860201e-2,-5.467442e-2,3.710591,-6.773054,-17.26551)"
       gradientUnits="userSpaceOnUse" />
    <linearGradient
       inkscape:collect="always"
       id="linearGradient2337">
      <stop
         style="stop-color:#ffffff;stop-opacity:1;"
         offset="0"
         id="stop2339" />
      <stop
         style="stop-color:#ffffff;stop-opacity:0;"
         offset="1"
         id="stop2341" />
    </linearGradient>
    <radialGradient
       inkscape:collect="always"
       xlink:href="#linearGradient2337"
       id="radialGradient2343"
       cx="20.275276"
       cy="5.7119732"
       fx="20.275276"
       fy="5.7119732"
       r="12.494026"
       gradientTransform="matrix(2.355461,0,0,2.136975,-27.16971,-4.15703)"
       gradientUnits="userSpaceOnUse" />
    <linearGradient
       inkscape:collect="always"
       xlink:href="#linearGradient2355"
       id="linearGradient2365"
       x1="25.160467"
       y1="15.803662"
       x2="33.96875"
       y2="20.4375"
       gradientUnits="userSpaceOnUse"
       gradientTransform="matrix(0.930736,0,0,0.930736,1.716991,2.07877)" />
    <linearGradient
       inkscape:collect="always"
       xlink:href="#linearGradient2355"
       id="linearGradient2367"
       x1="25.160467"
       y1="15.803662"
       x2="33.96875"
       y2="20.4375"
       gradientUnits="userSpaceOnUse"
       gradientTransform="matrix(0.930736,0,0,0.930736,1.716991,2.07877)" />
    <linearGradient
       inkscape:collect="always"
       xlink:href="#linearGradient2355"
       id="linearGradient2361"
       x1="25.160467"
       y1="15.803662"
       x2="33.96875"
       y2="20.4375"
       gradientUnits="userSpaceOnUse"
       gradientTransform="matrix(0.930736,0,0,0.930736,1.716991,2.07877)" />
    <linearGradient
       inkscape:collect="always"
       xlink:href="#linearGradient2355"
       id="linearGradient2363"
       x1="25.160467"
       y1="15.803662"
       x2="33.96875"
       y2="20.4375"
       gradientUnits="userSpaceOnUse"
       gradientTransform="matrix(0.930736,0,0,0.930736,1.716991,2.07877)" />
    <linearGradient
       id="linearGradient2407">
      <stop
         style="stop-color:#d5d5d5;stop-opacity:1;"
         offset="0"
         id="stop2409" />
      <stop
         style="stop-color:#747474;stop-opacity:1;"
         offset="1"
         id="stop2411" />
    </linearGradient>
    <radialGradient
       inkscape:collect="always"
       xlink:href="#linearGradient2407"
       id="radialGradient2413"
       cx="33.499996"
       cy="20.538168"
       fx="33.499996"
       fy="20.538168"
       r="2.2697367"
       gradientUnits="userSpaceOnUse"
       gradientTransform="matrix(0.435326,0,0,0.435326,18.91658,12.49341)" />
    <linearGradient
       inkscape:collect="always"
       id="linearGradient2355">
      <stop
         style="stop-color:#000000;stop-opacity:1;"
         offset="0"
         id="stop2357" />
      <stop
         style="stop-color:#000000;stop-opacity:0;"
         offset="1"
         id="stop2359" />
    </linearGradient>
    <linearGradient
       inkscape:collect="always"
       xlink:href="#linearGradient2355"
       id="linearGradient2369"
       x1="25.160467"
       y1="15.803662"
       x2="33.96875"
       y2="20.4375"
       gradientUnits="userSpaceOnUse"
       gradientTransform="matrix(0.930736,0,0,0.930736,1.716991,2.07877)" />
    <linearGradient
       inkscape:collect="always"
       xlink:href="#linearGradient2371"
       id="linearGradient2377"
       x1="18.328718"
       y1="15.323075"
       x2="14.40625"
       y2="14.046875"
       gradientUnits="userSpaceOnUse"
       gradientTransform="matrix(0.930736,0,0,0.930736,1.716991,2.07877)" />
    <linearGradient
       inkscape:collect="always"
       xlink:href="#linearGradient2371"
       id="linearGradient2379"
       x1="18.328718"
       y1="15.323075"
       x2="14.40625"
       y2="14.046875"
       gradientUnits="userSpaceOnUse"
       gradientTransform="matrix(0.930736,0,0,0.930736,1.716991,2.07877)" />
    <linearGradient
       inkscape:collect="always"
       xlink:href="#linearGradient2371"
       id="linearGradient2385"
       x1="18.328718"
       y1="15.323075"
       x2="14.40625"
       y2="14.046875"
       gradientUnits="userSpaceOnUse"
       gradientTransform="matrix(0.930736,0,0,0.930736,1.716991,2.07877)" />
    <linearGradient
       inkscape:collect="always"
       xlink:href="#linearGradient2371"
       id="linearGradient2383"
       x1="18.328718"
       y1="15.323075"
       x2="14.40625"
       y2="14.046875"
       gradientUnits="userSpaceOnUse"
       gradientTransform="matrix(0.930736,0,0,0.930736,1.716991,2.07877)" />
    <linearGradient
       id="linearGradient2371">
      <stop
         style="stop-color:#000000;stop-opacity:1;"
         offset="0"
         id="stop2373" />
      <stop
         style="stop-color:#000000;stop-opacity:0.48453608;"
         offset="1"
         id="stop2375" />
    </linearGradient>
    <linearGradient
       inkscape:collect="always"
       xlink:href="#linearGradient2371"
       id="linearGradient2381"
       x1="18.328718"
       y1="15.323075"
       x2="14.40625"
       y2="14.046875"
       gradientUnits="userSpaceOnUse"
       gradientTransform="matrix(0.930736,0,0,0.930736,1.716991,2.07877)" />
    <linearGradient
       inkscape:collect="always"
       id="linearGradient2399">
      <stop
         style="stop-color:#ffffff;stop-opacity:1;"
         offset="0"
         id="stop2401" />
      <stop
         style="stop-color:#ffffff;stop-opacity:0;"
         offset="1"
         id="stop2403" />
    </linearGradient>
    <linearGradient
       inkscape:collect="always"
       xlink:href="#linearGradient2399"
       id="linearGradient2405"
       x1="16.4375"
       y1="49.110714"
       x2="17.402376"
       y2="43.420425"
       gradientUnits="userSpaceOnUse" />
  </defs>
  <sodipodi:namedview
     id="base"
     pagecolor="#ffffff"
     bordercolor="#666666"
     borderopacity="1.0"
     inkscape:pageopacity="0.0"
     inkscape:pageshadow="2"
     inkscape:zoom="7"
     inkscape:cx="24"
     inkscape:cy="28.209193"
     inkscape:current-layer="layer1"
     showgrid="true"
     inkscape:grid-bbox="true"
     inkscape:document-units="px"
     inkscape:window-width="872"
     inkscape:window-height="582"
     inkscape:window-x="81"
     inkscape:window-y="127" />
  <metadata
     id="metadata1948">
    <rdf:RDF>
      <cc:Work
         rdf:about="">
        <dc:format>image/svg+xml</dc:format>
        <dc:type
           rdf:resource="http://purl.org/dc/dcmitype/StillImage" />
      </cc:Work>
    </rdf:RDF>
  </metadata>
  <g
     id="layer1"
     inkscape:label="Layer 1"
     inkscape:groupmode="layer">
    <path
       sodipodi:type="arc"
       style="opacity:0.49431817;color:black;fill:url(#radialGradient2248);fill-opacity:1;fill-rule:evenodd;stroke:none;stroke-width:2;stroke-linecap:butt;stroke-linejoin:miter;marker:none;marker-start:none;marker-mid:none;marker-end:none;stroke-miterlimit:4;stroke-dasharray:none;stroke-dashoffset:0;stroke-opacity:1;visibility:visible;display:inline;overflow:visible"
       id="path2240"
       sodipodi:cx="25.1875"
       sodipodi:cy="41"
       sodipodi:rx="16.4375"
       sodipodi:ry="7"
       d="M 41.625 41 A 16.4375 7 0 1 1  8.75,41 A 16.4375 7 0 1 1  41.625 41 z"
       transform="matrix(1.029826,0,0,0.972287,-0.778831,-0.264693)" />
    <path
       sodipodi:type="arc"
       style="opacity:1;color:black;fill:url(#radialGradient2238);fill-opacity:1;fill-rule:evenodd;stroke:#424242;stroke-width:1;stroke-linecap:butt;stroke-linejoin:miter;marker:none;marker-start:none;marker-mid:none;marker-end:none;stroke-miterlimit:4;stroke-dasharray:none;stroke-dashoffset:0;stroke-opacity:1;visibility:visible;display:inline;overflow:visible"
       id="path2222"
       sodipodi:cx="16.4375"
       sodipodi:cy="46.375"
       sodipodi:rx="11.1875"
       sodipodi:ry="5.875"
       d="M 27.625 46.375 A 11.1875 5.875 0 1 1  5.25,46.375 A 11.1875 5.875 0 1 1  27.625 46.375 z"
       transform="matrix(0.930736,0,0,0.930736,9.860929,-4.436382)" />
    <path
       transform="matrix(1.923521,0,0,1.178932,-39.21988,10.89749)"
       d="M 35.375 22.125 A 1.875 1.875 0 1 1  31.625,22.125 A 1.875 1.875 0 1 1  35.375 22.125 z"
       sodipodi:ry="1.875"
       sodipodi:rx="1.875"
       sodipodi:cy="22.125"
       sodipodi:cx="33.5"
       id="path2260"
       style="opacity:1;color:black;fill:#424242;fill-opacity:1;fill-rule:evenodd;stroke:none;stroke-width:2;stroke-linecap:butt;stroke-linejoin:miter;marker:none;marker-start:none;marker-mid:none;marker-end:none;stroke-miterlimit:4;stroke-dasharray:none;stroke-dashoffset:0;stroke-opacity:1;visibility:visible;display:inline;overflow:visible"
       sodipodi:type="arc" />
    <path
       style="opacity:1;color:black;fill:none;fill-opacity:1;fill-rule:evenodd;stroke:url(#linearGradient2258);stroke-width:0.93073595;stroke-linecap:butt;stroke-linejoin:miter;marker:none;marker-start:none;marker-mid:none;marker-end:none;stroke-miterlimit:4;stroke-dasharray:none;stroke-dashoffset:0;stroke-opacity:1;visibility:visible;display:inline;overflow:visible"
       d="M 20.564393,31.28061 C 20.564393,31.28061 21.249299,34.447197 23.356601,34.189159 C 29.057359,33.491107 28.448994,33.733558 32.547618,35.003553 C 36.677759,36.283315 34.496347,38.348386 38.713744,38.726497 C 42.931141,39.104609 42.553029,35.352579 46.159631,35.119895"
       id="path2250"
       sodipodi:nodetypes="cszzc" />
    <rect
       style="opacity:1;color:black;fill:url(#radialGradient2351);fill-opacity:1;fill-rule:evenodd;stroke:#7c7c7c;stroke-width:0.93087679;stroke-linecap:butt;stroke-linejoin:miter;marker:none;marker-start:none;marker-mid:none;marker-end:none;stroke-miterlimit:4;stroke-dasharray:none;stroke-dashoffset:0;stroke-opacity:1;visibility:visible;display:inline;overflow:visible"
       id="rect1343"
       width="20.603462"
       height="28.5662"
       x="17.124224"
       y="-2.1301649"
       rx="6.6936841"
       ry="6.6937046"
       transform="matrix(0.970732,0.240164,-0.264014,0.964519,0,0)" />
    <rect
       transform="matrix(0.970732,0.240164,-0.264014,0.964519,0,0)"
       ry="5.4198632"
       rx="5.4198437"
       y="-1.1918732"
       x="18.223564"
       height="26.548706"
       width="18.486298"
       id="rect2353"
       style="opacity:0.30681817;color:black;fill:none;fill-opacity:1;fill-rule:evenodd;stroke:white;stroke-width:0.93087691;stroke-linecap:butt;stroke-linejoin:miter;marker:none;marker-start:none;marker-mid:none;marker-end:none;stroke-miterlimit:4;stroke-dasharray:none;stroke-dashoffset:0;stroke-opacity:1;visibility:visible;display:inline;overflow:visible" />
    <path
       style="opacity:0.44318183;color:black;fill:url(#radialGradient2343);fill-opacity:1;fill-rule:evenodd;stroke:none;stroke-width:1.00015175;stroke-linecap:butt;stroke-linejoin:miter;marker:none;marker-start:none;marker-mid:none;marker-end:none;stroke-miterlimit:4;stroke-dasharray:none;stroke-dashoffset:0;stroke-opacity:1;visibility:visible;display:inline;overflow:visible"
       d="M 20.418966,3.9111562 C 18.351719,4.2391988 16.55593,5.8093996 15.968885,7.9540404 L 11.460632,24.56186 C 14.119694,25.868711 17.638495,24.998142 20.97159,24.998142 C 21.427658,24.998142 21.891221,24.996723 22.338609,24.969057 C 21.468239,24.757256 20.186282,24.445518 20.186282,24.445518 C 19.981647,24.390098 19.794271,24.319688 19.662743,24.212834 C 19.658339,24.209052 19.637928,24.187629 19.633657,24.183748 C 19.621254,24.171798 19.589973,24.140687 19.575486,24.125577 C 19.570222,24.120425 19.551627,24.101673 19.546401,24.096492 C 19.538747,24.081732 19.523183,24.049875 19.517315,24.038321 C 19.508313,24.015668 19.494301,23.971368 19.48823,23.951064 C 19.488412,23.94818 19.488173,23.924526 19.48823,23.921979 C 19.482803,23.911944 19.464379,23.873992 19.459144,23.863808 C 19.45921,23.858093 19.459188,23.838443 19.459144,23.834722 C 19.459358,23.818095 19.459114,23.787278 19.459144,23.776551 C 19.459046,23.770925 19.458849,23.750844 19.459144,23.747466 C 19.459043,23.744519 19.459155,23.720963 19.459144,23.71838 C 19.466702,23.684664 19.482098,23.631372 19.48823,23.602038 C 19.493124,23.592484 19.511874,23.554343 19.517315,23.543867 C 19.517316,23.541206 19.51756,23.517645 19.517315,23.514782 C 19.524403,23.491913 19.538093,23.448256 19.546401,23.427525 C 19.553915,23.412204 19.57074,23.378692 19.575486,23.369354 C 19.598536,23.327331 19.63436,23.259829 19.662743,23.223927 C 19.668718,23.217891 19.687864,23.198808 19.691828,23.194841 C 19.702298,23.189712 19.740427,23.170409 19.749999,23.165756 C 19.776577,23.149792 19.833149,23.121362 19.866341,23.107585 C 19.876465,23.107728 19.914292,23.107292 19.924512,23.107585 C 19.924344,23.10596 19.924462,23.085029 19.924512,23.078499 C 19.931039,23.078445 19.951949,23.078308 19.953598,23.078499 C 20.116321,23.048092 20.32262,23.072137 20.535308,23.107585 L 26.061552,24.387347 C 27.169403,24.116369 28.227586,23.744927 29.231872,23.311183 C 29.090025,23.231015 28.936395,23.180093 28.795589,23.13667 C 28.760808,23.1266 28.713786,23.114856 28.679247,23.107585 C 28.679247,23.107585 21.029761,21.246113 21.029761,21.246113 C 20.825127,21.190693 20.616316,21.120283 20.477137,21.013429 C 20.472479,21.009647 20.452563,20.988225 20.448051,20.984343 C 20.443844,20.980256 20.423014,20.959453 20.418966,20.955258 C 20.41508,20.950954 20.393599,20.930588 20.38988,20.926172 C 20.384838,20.916282 20.365432,20.87816 20.360795,20.868001 C 20.355488,20.862881 20.336969,20.844069 20.331709,20.838916 C 20.332001,20.835946 20.331624,20.812399 20.331709,20.80983 C 20.326376,20.7997 20.307745,20.761927 20.302624,20.751659 C 20.302783,20.748775 20.30257,20.725121 20.302624,20.722574 C 20.302595,20.712539 20.30242,20.674587 20.302624,20.664403 C 20.301945,20.644364 20.30107,20.5986 20.302624,20.577146 C 20.302663,20.573856 20.302753,20.551749 20.302624,20.548061 C 20.301965,20.535955 20.301835,20.500184 20.302624,20.48989 C 20.30249,20.486694 20.302644,20.463438 20.302624,20.460804 C 20.30797,20.450428 20.326748,20.412296 20.331709,20.402634 C 20.339889,20.376729 20.351848,20.339022 20.360795,20.315377 C 20.365731,20.305477 20.38473,20.267189 20.38988,20.257206 C 20.405817,20.223393 20.431184,20.17012 20.448051,20.140864 C 20.461472,20.121355 20.489823,20.075415 20.506222,20.053608 C 20.510483,20.049071 20.530962,20.02886 20.535308,20.024522 C 20.54128,20.018486 20.56043,19.999403 20.564393,19.995437 C 20.574904,19.990306 20.61302,19.971005 20.622564,19.966351 C 20.637355,19.958666 20.66904,19.942952 20.680735,19.937266 C 20.688659,19.93372 20.723489,19.915828 20.738906,19.90818 C 20.741845,19.908407 20.765434,19.908114 20.767992,19.90818 C 20.771975,19.904233 20.791012,19.885088 20.797077,19.879095 C 20.799665,19.879149 20.823134,19.878941 20.826163,19.879095 C 20.83282,19.872561 20.854009,19.85164 20.855248,19.850009 C 20.858278,19.850158 20.881746,19.849955 20.884334,19.850009 C 20.890252,19.850124 20.910624,19.850122 20.913419,19.850009 C 21.047583,19.844615 21.213137,19.880572 21.378787,19.90818 L 29.11553,21.711481 C 29.692013,21.87236 30.22061,22.278108 30.627975,22.671302 C 31.106152,22.416976 31.550594,22.11763 31.994994,21.827823 C 31.859437,21.646331 30.756701,20.246049 29.75541,19.937266 C 29.72063,19.927195 29.673607,19.915451 29.639068,19.90818 C 29.639068,19.90818 21.989583,18.046708 21.989583,18.046708 C 21.784948,17.991288 21.576138,17.920878 21.436958,17.814024 C 21.432301,17.810243 21.412385,17.78882 21.407873,17.784939 C 21.403666,17.780851 21.382836,17.760048 21.378787,17.755853 C 21.374901,17.751549 21.35342,17.731183 21.349702,17.726768 C 21.34466,17.716877 21.325253,17.678755 21.320616,17.668597 C 21.315309,17.663476 21.29679,17.644664 21.291531,17.639511 C 21.291822,17.636541 21.291445,17.612995 21.291531,17.610426 C 21.286198,17.600296 21.267566,17.562523 21.262445,17.552255 C 21.262604,17.54937 21.262391,17.525717 21.262445,17.523169 C 21.262416,17.513134 21.262241,17.475182 21.262445,17.464998 C 21.261767,17.444959 21.260892,17.399195 21.262445,17.377742 C 21.262484,17.374452 21.262575,17.352345 21.262445,17.348656 C 21.261786,17.33655 21.261657,17.300779 21.262445,17.290485 C 21.262311,17.287289 21.262466,17.264034 21.262445,17.2614 C 21.267791,17.251023 21.28657,17.212892 21.291531,17.203229 C 21.299711,17.177325 21.311669,17.139618 21.320616,17.115972 C 21.325553,17.106072 21.344552,17.067784 21.349702,17.057801 C 21.365639,17.023989 21.391005,16.970715 21.407873,16.941459 C 21.421294,16.92195 21.449644,16.87601 21.466044,16.854203 C 21.470305,16.849666 21.490784,16.829455 21.495129,16.825117 C 21.501102,16.819081 21.520252,16.8 21.524215,16.796032 C 21.534725,16.790902 21.572842,16.7716 21.582386,16.766946 C 21.597177,16.759261 21.628861,16.743548 21.640557,16.737861 C 21.645666,16.73253 21.664511,16.714066 21.669642,16.708775 C 21.679814,16.708935 21.717555,16.708463 21.727813,16.708775 C 21.731797,16.704828 21.750833,16.685684 21.756899,16.67969 C 21.759486,16.679744 21.782956,16.679537 21.785984,16.67969 C 21.792642,16.673155 21.813831,16.652236 21.81507,16.650604 C 21.818099,16.650753 21.841568,16.65055 21.844155,16.650604 C 21.850074,16.65072 21.870446,16.650716 21.873241,16.650604 C 22.007404,16.645211 22.172958,16.681167 22.338609,16.708775 L 30.075351,18.512076 C 31.326027,18.861102 32.373105,20.373548 32.373105,20.373548 L 31.994994,21.827823 C 32.166405,21.716041 32.352462,21.624689 32.518533,21.507882 L 34.932629,12.636806 C 35.715761,9.7758005 34.038774,6.9160381 31.1806,6.2089105 L 22.542207,4.0565837 C 21.98397,3.9184737 21.431609,3.8728155 20.884334,3.9111562 C 20.881031,3.911388 20.860912,3.9112298 20.855248,3.9111562 C 20.843245,3.9109198 20.808666,3.9117165 20.797077,3.9111562 C 20.791237,3.9109533 20.773977,3.9111776 20.767992,3.9111562 C 20.765156,3.9110985 20.745058,3.9111832 20.738906,3.9111562 C 20.710975,3.911939 20.65043,3.910003 20.622564,3.9111562 C 20.613942,3.911509 20.579476,3.9113815 20.564393,3.9111562 C 20.560831,3.9111088 20.539128,3.9109403 20.535308,3.9111562 C 20.525425,3.9109887 20.487012,3.9112856 20.477137,3.9111562 C 20.467244,3.9109812 20.42885,3.911294 20.418966,3.9111562 z M 16.230654,8.7684343 L 20.797077,9.6700848 C 20.974317,9.7246203 21.161423,9.805223 21.291531,9.9318542 C 21.295747,9.9361803 21.316527,9.9565094 21.320616,9.9609397 C 21.324576,9.965478 21.345876,9.9853781 21.349702,9.9900252 C 21.354672,9.9998808 21.374149,10.038086 21.378787,10.048196 C 21.384073,10.053306 21.402627,10.072143 21.407873,10.077282 C 21.417263,10.100192 21.429771,10.143724 21.436958,10.164539 C 21.445121,10.191114 21.460076,10.247896 21.466044,10.280881 C 21.465971,10.286578 21.465995,10.306247 21.466044,10.309966 C 21.46581,10.326469 21.466079,10.3572 21.466044,10.368137 C 21.466373,10.394533 21.467903,10.456761 21.466044,10.484479 C 21.466177,10.487674 21.466028,10.510932 21.466044,10.513565 C 21.460716,10.523906 21.442047,10.561652 21.436958,10.571736 C 21.430221,10.597336 21.41587,10.635476 21.407873,10.658992 C 21.408137,10.661856 21.407841,10.685396 21.407873,10.688078 C 21.402601,10.698764 21.383822,10.736858 21.378787,10.746249 C 21.372156,10.759701 21.356819,10.791825 21.349702,10.804419 C 21.344496,10.809525 21.325851,10.828451 21.320616,10.833505 C 21.315719,10.84383 21.296537,10.881554 21.291531,10.891676 C 21.287303,10.896741 21.266775,10.915893 21.262445,10.920761 C 21.258015,10.925435 21.237888,10.945367 21.23336,10.949847 C 21.228737,10.954137 21.20899,10.974831 21.204274,10.978932 C 21.194389,10.983907 21.156181,11.003452 21.146103,11.008018 C 21.140983,11.013299 21.122157,11.031866 21.117018,11.037103 C 21.097409,11.045219 21.049994,11.05957 21.029761,11.066189 C 21.007214,11.074282 20.965962,11.089658 20.942505,11.095274 C 20.788712,11.1279 20.613475,11.113452 20.448051,11.066189 L 15.852543,10.077282 L 16.230654,8.7684343 z M 23.502028,10.251795 C 23.505058,10.251944 23.528527,10.251741 23.531114,10.251795 C 23.537033,10.25191 23.557404,10.251907 23.560199,10.251795 C 23.694363,10.246401 23.859917,10.282358 24.025567,10.309966 L 31.76231,12.113267 C 33.012986,12.462293 33.82738,13.742055 33.82738,13.742055 L 33.50744,15.167244 C 33.371883,14.985752 32.44366,13.84724 31.442369,13.538456 C 31.407589,13.528385 31.360566,13.516642 31.326027,13.509371 C 31.326027,13.509371 23.676541,11.647899 23.676541,11.647899 C 23.471907,11.592479 23.263096,11.522069 23.123917,11.415215 C 23.11926,11.411433 23.099344,11.390011 23.094832,11.386129 C 23.090625,11.382042 23.069795,11.361239 23.065746,11.357044 C 23.06186,11.35274 23.040379,11.332374 23.036661,11.327958 C 23.031619,11.318067 23.012212,11.279945 23.007575,11.269787 C 23.002268,11.264666 22.983749,11.245854 22.97849,11.240702 C 22.978781,11.237733 22.978404,11.214185 22.97849,11.211616 C 22.973156,11.201486 22.954525,11.163713 22.949404,11.153445 C 22.949563,11.150562 22.94935,11.126908 22.949404,11.12436 C 22.949375,11.114324 22.9492,11.076373 22.949404,11.066189 C 22.948726,11.046151 22.947851,11.000386 22.949404,10.978932 C 22.949443,10.975642 22.949533,10.953536 22.949404,10.949847 C 22.948745,10.937741 22.948616,10.90197 22.949404,10.891676 C 22.94927,10.88848 22.949425,10.865225 22.949404,10.86259 C 22.95475,10.852214 22.973529,10.814082 22.97849,10.804419 C 22.98667,10.778515 22.998628,10.740809 23.007575,10.717163 C 23.012512,10.707262 23.031511,10.668975 23.036661,10.658992 C 23.052598,10.625179 23.077964,10.571905 23.094832,10.54265 C 23.108253,10.523141 23.136603,10.477201 23.153003,10.455394 C 23.157263,10.450857 23.177742,10.430646 23.182088,10.426308 C 23.188061,10.420272 23.20721,10.40119 23.211174,10.397223 C 23.221684,10.392092 23.259801,10.37279 23.269345,10.368137 C 23.284136,10.360452 23.31582,10.344739 23.327516,10.339052 C 23.332625,10.333721 23.35147,10.315257 23.356601,10.309966 C 23.366773,10.310126 23.404514,10.309653 23.414772,10.309966 C 23.418756,10.306019 23.437792,10.286875 23.443857,10.280881 C 23.446445,10.280935 23.469914,10.280727 23.472943,10.280881 C 23.479601,10.274346 23.50079,10.253426 23.502028,10.251795 z M 15.387175,11.909668 L 19.953598,12.811319 C 20.130838,12.865854 20.317944,12.946456 20.448051,13.073088 C 20.452267,13.077413 20.473047,13.097742 20.477137,13.102174 C 20.481097,13.106712 20.502397,13.126612 20.506222,13.131259 C 20.511192,13.141115 20.53067,13.179319 20.535308,13.18943 C 20.540593,13.194539 20.559148,13.213377 20.564393,13.218516 C 20.564226,13.219989 20.564339,13.241018 20.564393,13.247601 C 20.569658,13.257718 20.588395,13.29553 20.593479,13.305772 C 20.600009,13.327033 20.616274,13.368013 20.622564,13.393029 C 20.622725,13.396251 20.622528,13.418388 20.622564,13.422114 C 20.622165,13.438721 20.622258,13.46956 20.622564,13.480285 C 20.622493,13.50216 20.624764,13.544365 20.622564,13.567542 C 20.617671,13.606907 20.60484,13.669795 20.593479,13.712969 C 20.59356,13.715448 20.593189,13.739471 20.593479,13.742055 C 20.581654,13.770013 20.548336,13.832472 20.535308,13.858397 C 20.528927,13.872284 20.513099,13.903547 20.506222,13.916568 C 20.501287,13.926819 20.482189,13.964697 20.477137,13.974739 C 20.471944,13.97987 20.453271,13.998744 20.448051,14.003824 C 20.415076,14.045943 20.370865,14.090306 20.331709,14.120166 C 20.32658,14.125426 20.307774,14.144037 20.302624,14.149252 C 20.287869,14.156896 20.256535,14.172308 20.244453,14.178337 C 20.236292,14.182105 20.20166,14.199805 20.186282,14.207422 C 20.183355,14.20718 20.15975,14.207493 20.157196,14.207422 C 20.147043,14.212757 20.109234,14.231326 20.099025,14.236508 C 19.945232,14.269134 19.769995,14.254686 19.604572,14.207422 L 15.009063,13.218516 L 15.387175,11.909668 z M 22.658549,13.4512 C 22.661579,13.451348 22.685047,13.451146 22.687635,13.4512 C 22.693553,13.451315 22.713925,13.451312 22.71672,13.4512 C 22.850884,13.445806 23.016437,13.481762 23.182088,13.509371 L 30.91883,15.312671 C 32.169507,15.661697 32.867559,16.854203 32.867559,16.854203 L 32.576704,18.192136 C 32.441147,18.010644 31.60018,17.046645 30.59889,16.737861 C 30.564109,16.72779 30.517087,16.716046 30.482548,16.708775 C 30.482548,16.708775 22.833062,14.847303 22.833062,14.847303 C 22.628428,14.791884 22.419617,14.721474 22.280438,14.614619 C 22.27578,14.610838 22.255864,14.589415 22.251352,14.585534 C 22.247145,14.581446 22.226315,14.560643 22.222267,14.556448 C 22.218381,14.552145 22.196899,14.531778 22.193181,14.527363 C 22.188139,14.517472 22.168733,14.47935 22.164096,14.469192 C 22.158789,14.464071 22.14027,14.445259 22.13501,14.440106 C 22.135301,14.437136 22.134924,14.41359 22.13501,14.411021 C 22.129677,14.400891 22.111046,14.363117 22.105925,14.35285 C 22.106084,14.349966 22.105871,14.326312 22.105925,14.323764 C 22.105896,14.313729 22.105721,14.275778 22.105925,14.265593 C 22.105246,14.245555 22.104371,14.19979 22.105925,14.178337 C 22.105964,14.175047 22.106054,14.15294 22.105925,14.149252 C 22.105266,14.137145 22.105136,14.101374 22.105925,14.091081 C 22.105791,14.087884 22.105945,14.064629 22.105925,14.061995 C 22.111271,14.051618 22.130049,14.013487 22.13501,14.003824 C 22.14319,13.97792 22.155148,13.940213 22.164096,13.916568 C 22.169032,13.906667 22.188031,13.86838 22.193181,13.858397 C 22.209118,13.824584 22.234484,13.77131 22.251352,13.742055 C 22.264773,13.722545 22.293124,13.676605 22.309523,13.654798 C 22.313784,13.650262 22.334263,13.630051 22.338609,13.625713 C 22.344581,13.619677 22.363731,13.600595 22.367694,13.596627 C 22.378205,13.591497 22.416321,13.572195 22.425865,13.567542 C 22.440656,13.559856 22.47234,13.544144 22.484036,13.538456 C 22.49196,13.534911 22.526789,13.517018 22.542207,13.509371 C 22.545145,13.509598 22.568735,13.509304 22.571293,13.509371 C 22.575276,13.505423 22.594312,13.486279 22.600378,13.480285 C 22.602966,13.480339 22.626435,13.480132 22.629464,13.480285 C 22.636121,13.473751 22.65731,13.452831 22.658549,13.4512 z M 14.514609,15.050902 L 19.081033,15.981638 C 19.21027,16.021403 19.345949,16.083597 19.459144,16.156151 C 19.469427,16.161062 19.507145,16.180206 19.517315,16.185236 C 19.522463,16.190414 19.541285,16.209113 19.546401,16.214322 C 19.551354,16.218682 19.570672,16.238915 19.575486,16.243407 C 19.587746,16.255558 19.618943,16.286512 19.633657,16.301578 C 19.638912,16.306709 19.657525,16.325504 19.662743,16.330664 C 19.662575,16.333867 19.662795,16.3571 19.662743,16.359749 C 19.667894,16.370036 19.686655,16.408241 19.691828,16.41792 C 19.697159,16.422998 19.715628,16.441897 19.720914,16.447006 C 19.731182,16.47674 19.744647,16.530349 19.749999,16.563348 C 19.750027,16.573327 19.750188,16.611402 19.749999,16.621519 C 19.750612,16.642969 19.751475,16.686037 19.749999,16.708775 C 19.750077,16.711763 19.75,16.735252 19.749999,16.737861 C 19.742731,16.771894 19.727492,16.826379 19.720914,16.854203 C 19.721128,16.857117 19.72089,16.88072 19.720914,16.883288 C 19.707709,16.912621 19.675628,16.97286 19.662743,16.99963 C 19.655229,17.014819 19.638555,17.047668 19.633657,17.057801 C 19.628645,17.067626 19.612157,17.100977 19.604572,17.115972 C 19.599784,17.126262 19.580293,17.1646 19.575486,17.174143 C 19.55198,17.201586 19.51299,17.239864 19.48823,17.2614 C 19.48309,17.266637 19.464306,17.285294 19.459144,17.290485 C 19.454015,17.295745 19.435209,17.314356 19.430059,17.319571 C 19.415304,17.327215 19.38397,17.342627 19.371888,17.348656 C 19.363727,17.352424 19.329095,17.370125 19.313717,17.377742 C 19.31079,17.377499 19.287185,17.377812 19.284631,17.377742 C 19.117719,17.427305 18.916518,17.43046 18.732007,17.377742 L 14.136497,16.330664 L 14.514609,15.050902 z M 13.700215,18.16305 L 18.266639,19.151957 C 18.473419,19.215582 18.690228,19.33447 18.819263,19.500983 C 18.824518,19.506114 18.843131,19.524909 18.848349,19.530069 C 18.855957,19.544746 18.871224,19.575972 18.877434,19.58824 C 18.886633,19.611291 18.89999,19.654235 18.90652,19.675496 C 18.911888,19.685545 18.930436,19.723486 18.935605,19.733667 C 18.935604,19.743664 18.935818,19.781705 18.935605,19.791838 C 18.93555,19.797524 18.935546,19.817212 18.935605,19.820924 C 18.935541,19.837321 18.935989,19.867942 18.935605,19.879095 C 18.935671,19.88209 18.935617,19.905565 18.935605,19.90818 C 18.935755,19.911033 18.935583,19.934712 18.935605,19.937266 C 18.932346,19.948256 18.911014,19.983504 18.90652,19.995437 C 18.905284,19.998983 18.907464,20.021385 18.90652,20.024522 C 18.906787,20.027088 18.90647,20.051138 18.90652,20.053608 C 18.89866,20.083475 18.886766,20.139179 18.877434,20.16995 C 18.848103,20.243816 18.802312,20.320899 18.761092,20.373548 C 18.756865,20.378613 18.736337,20.397766 18.732007,20.402634 C 18.727577,20.407307 18.707449,20.427238 18.702921,20.431719 C 18.698298,20.436009 18.678552,20.456703 18.673836,20.460804 C 18.668696,20.466042 18.649912,20.484698 18.64475,20.48989 C 18.63489,20.494926 18.596621,20.514337 18.586579,20.518975 C 18.581469,20.524277 18.562623,20.542801 18.557494,20.548061 C 18.53443,20.557111 18.490178,20.570618 18.470237,20.577146 C 18.460084,20.577028 18.422275,20.577417 18.412066,20.577146 C 18.258273,20.609773 18.083036,20.595325 17.917613,20.548061 L 13.322103,19.471898 L 13.700215,18.16305 z M 12.798564,21.304284 L 17.364988,22.293191 C 17.542229,22.347726 17.729334,22.428328 17.859442,22.55496 C 17.863658,22.559285 17.884438,22.579615 17.888527,22.584046 C 17.892488,22.588584 17.913788,22.608484 17.917613,22.613131 C 17.922583,22.622987 17.942061,22.661192 17.946698,22.671302 C 17.951984,22.676411 17.970538,22.695249 17.975784,22.700388 C 17.985174,22.723298 17.997682,22.76683 18.004869,22.787644 C 18.013032,22.81422 18.027987,22.871001 18.033955,22.903986 C 18.03444,22.90914 18.033858,22.925634 18.033955,22.933072 C 18.033721,22.949575 18.03399,22.980306 18.033955,22.991243 C 18.034284,23.017639 18.035815,23.079867 18.033955,23.107585 C 18.033029,23.110989 18.035157,23.133017 18.033955,23.13667 C 18.029557,23.148304 18.008315,23.184239 18.004869,23.194841 C 17.998133,23.220442 17.983781,23.258583 17.975784,23.282098 C 17.968433,23.302078 17.955352,23.346743 17.946698,23.369354 C 17.940067,23.382806 17.92473,23.414931 17.917613,23.427525 C 17.912407,23.432631 17.893762,23.451557 17.888527,23.456611 C 17.88363,23.466936 17.864448,23.50466 17.859442,23.514782 C 17.855215,23.519847 17.834686,23.539 17.830356,23.543867 C 17.825926,23.54854 17.805799,23.568472 17.801271,23.572953 C 17.796648,23.577243 17.776901,23.597936 17.772185,23.602038 C 17.7623,23.607012 17.724092,23.626558 17.714014,23.631124 C 17.708894,23.636405 17.690068,23.654972 17.684929,23.660209 C 17.66532,23.668324 17.617905,23.682676 17.597672,23.689295 C 17.575125,23.697388 17.533873,23.712764 17.510416,23.71838 C 17.356623,23.751006 17.181386,23.736558 17.015963,23.689295 L 12.420452,22.613131 L 12.798564,21.304284 z "
       id="rect2302"
       sodipodi:nodetypes="cccsccsssssssssssssssssssssssscccsccssssssssssssssssssssssssssssssccccsccssssssssssssssssssssssssssssssccccccccssssssssscccsssssssssssssssssssssssssccccssccccsccssssssssssssssssssssssssssscccsssssssssssssssssssssssccccssccccsccssssssssssssssssssssssssssscccssssssssssssssssssssssssscccccssssssssssssssssssssssscccccssssssssssssssssssssssssccc" />
    <path
       style="opacity:1;color:black;fill:url(#linearGradient2365);fill-opacity:1;fill-rule:evenodd;stroke:none;stroke-width:1;stroke-linecap:butt;stroke-linejoin:miter;marker:none;marker-start:none;marker-mid:none;marker-end:none;stroke-miterlimit:4;stroke-dasharray:none;stroke-dashoffset:0;stroke-opacity:1;visibility:visible;display:inline;overflow:visible"
       d="M 22.454951,16.825117 L 30.191693,18.628418 C 31.442369,18.977444 32.489447,20.48989 32.489447,20.48989 L 32.111336,21.97325 C 32.111336,21.97325 30.860659,20.257206 29.75541,20.024522 C 29.75541,20.024522 22.105925,18.16305 22.105925,18.16305 C 21.654318,18.040745 21.235794,17.864485 21.407873,17.319571 C 21.582386,16.766946 21.931412,16.737861 22.454951,16.825117 z "
       id="path2284"
       sodipodi:nodetypes="cccccczc" />
    <path
       style="opacity:1;color:black;fill:#747474;fill-opacity:1;fill-rule:evenodd;stroke:#424242;stroke-width:0.93073595;stroke-linecap:butt;stroke-linejoin:miter;marker:none;marker-start:none;marker-mid:none;marker-end:none;stroke-miterlimit:4;stroke-dasharray:none;stroke-dashoffset:0;stroke-opacity:1;visibility:visible;display:inline;overflow:visible"
       d="M 31.035172,19.762753 L 30.91883,34.072817 L 30.91883,34.101903 L 30.91883,34.130988 C 31.000458,35.437034 29.898959,36.585428 28.824675,36.370572 L 19.081033,34.363672 C 18.64475,34.24733 17.48133,33.781962 17.859442,32.44403 L 16.056141,31.978662 C 15.424398,34.246579 17.219561,35.847033 18.557494,36.137888 L 28.475649,38.173873 C 30.871933,38.65313 32.894729,36.466933 32.780302,34.072817 C 32.779362,34.053145 32.781534,34.034344 32.780302,34.014646 L 32.896644,19.762753 L 31.035172,19.762753 z "
       id="path1345"
       sodipodi:nodetypes="ccccccccccsccc" />
    <path
       sodipodi:nodetypes="cccccczc"
       id="path2286"
       d="M 21.495129,20.024522 L 29.231872,21.827823 C 30.482548,22.176849 31.529626,23.689295 31.529626,23.689295 L 31.151514,25.172655 C 31.151514,25.172655 29.900838,23.456611 28.795589,23.223927 C 28.795589,23.223927 21.146103,21.362455 21.146103,21.362455 C 20.694497,21.24015 20.275973,21.06389 20.448051,20.518975 C 20.622564,19.966351 20.97159,19.937266 21.495129,20.024522 z "
       style="opacity:1;color:black;fill:url(#linearGradient2367);fill-opacity:1;fill-rule:evenodd;stroke:none;stroke-width:1;stroke-linecap:butt;stroke-linejoin:miter;marker:none;marker-start:none;marker-mid:none;marker-end:none;stroke-miterlimit:4;stroke-dasharray:none;stroke-dashoffset:0;stroke-opacity:1;visibility:visible;display:inline;overflow:visible" />
    <path
       style="opacity:1;color:black;fill:url(#linearGradient2361);fill-opacity:1;fill-rule:evenodd;stroke:none;stroke-width:1;stroke-linecap:butt;stroke-linejoin:miter;marker:none;marker-start:none;marker-mid:none;marker-end:none;stroke-miterlimit:4;stroke-dasharray:none;stroke-dashoffset:0;stroke-opacity:1;visibility:visible;display:inline;overflow:visible"
       d="M 24.141909,10.426308 L 31.878652,12.229609 C 33.129328,12.578635 33.798295,13.625713 33.798295,13.625713 L 33.420183,15.109073 C 33.420183,15.109073 32.547618,13.858397 31.442369,13.625713 C 31.442369,13.625713 23.792883,11.764241 23.792883,11.764241 C 23.341277,11.641936 22.922753,11.465676 23.094832,10.920761 C 23.269345,10.368137 23.61837,10.339051 24.141909,10.426308 z "
       id="path2280"
       sodipodi:nodetypes="cccccczc" />
    <path
       sodipodi:nodetypes="cccccczc"
       id="path2282"
       d="M 23.29843,13.625713 L 31.035172,15.429013 C 32.285849,15.778039 32.954815,16.883288 32.954815,16.883288 L 32.547618,18.279392 C 32.547618,18.279392 31.704139,17.057801 30.59889,16.825117 C 30.59889,16.825117 22.949404,14.963645 22.949404,14.963645 C 22.497798,14.84134 22.079274,14.66508 22.251352,14.120166 C 22.425865,13.567542 22.774891,13.538456 23.29843,13.625713 z "
       style="opacity:1;color:black;fill:url(#linearGradient2363);fill-opacity:1;fill-rule:evenodd;stroke:none;stroke-width:1;stroke-linecap:butt;stroke-linejoin:miter;marker:none;marker-start:none;marker-mid:none;marker-end:none;stroke-miterlimit:4;stroke-dasharray:none;stroke-dashoffset:0;stroke-opacity:1;visibility:visible;display:inline;overflow:visible" />
    <path
       sodipodi:type="arc"
       style="opacity:1;color:black;fill:url(#radialGradient2413);fill-opacity:1;fill-rule:evenodd;stroke:#424242;stroke-width:0.78947347;stroke-linecap:butt;stroke-linejoin:miter;marker:none;marker-start:none;marker-mid:none;marker-end:none;stroke-miterlimit:4;stroke-dasharray:none;stroke-dashoffset:0;stroke-opacity:1;visibility:visible;display:inline;overflow:visible"
       id="path2220"
       sodipodi:cx="33.5"
       sodipodi:cy="22.125"
       sodipodi:rx="1.875"
       sodipodi:ry="1.875"
       d="M 35.375 22.125 A 1.875 1.875 0 1 1  31.625,22.125 A 1.875 1.875 0 1 1  35.375 22.125 z"
       transform="matrix(1.178932,0,0,1.178932,-7.877341,-5.506728)" />
    <path
       style="opacity:1;color:black;fill:url(#linearGradient2369);fill-opacity:1;fill-rule:evenodd;stroke:none;stroke-width:1;stroke-linecap:butt;stroke-linejoin:miter;marker:none;marker-start:none;marker-mid:none;marker-end:none;stroke-miterlimit:4;stroke-dasharray:none;stroke-dashoffset:0;stroke-opacity:1;visibility:visible;display:inline;overflow:visible"
       d="M 20.65165,23.223927 L 28.388392,25.027228 C 29.639068,25.376254 30.686146,26.888699 30.686146,26.888699 L 30.308035,28.37206 C 30.308035,28.37206 29.057359,26.656016 27.95211,26.423332 C 27.95211,26.423332 20.302624,24.56186 20.302624,24.56186 C 19.851018,24.439554 19.490665,24.263294 19.604572,23.71838 C 19.719844,23.166936 20.128111,23.13667 20.65165,23.223927 z "
       id="path2288"
       sodipodi:nodetypes="cccccczc" />
    <path
       style="opacity:1;color:black;fill:url(#linearGradient2377);fill-opacity:1;fill-rule:evenodd;stroke:none;stroke-width:1;stroke-linecap:butt;stroke-linejoin:miter;marker:none;marker-start:none;marker-mid:none;marker-end:none;stroke-miterlimit:4;stroke-dasharray:none;stroke-dashoffset:0;stroke-opacity:1;visibility:visible;display:inline;overflow:visible"
       d="M 17.132304,23.805637 L 12.536794,22.729473 L 12.914906,21.420626 L 17.48133,22.409533 C 17.859442,22.525875 18.266639,22.758559 18.121211,23.311183 C 17.977489,23.857327 17.539501,23.921979 17.132304,23.805637 z "
       id="path2292"
       sodipodi:nodetypes="cccczc" />
    <path
       sodipodi:nodetypes="cccczc"
       id="path2294"
       d="M 18.033955,20.671674 L 13.438445,19.59551 L 13.816557,18.286663 L 18.382981,19.27557 C 18.761092,19.391912 19.168289,19.624596 19.022862,20.17722 C 18.879139,20.723365 18.441152,20.788016 18.033955,20.671674 z "
       style="opacity:1;color:black;fill:url(#linearGradient2379);fill-opacity:1;fill-rule:evenodd;stroke:none;stroke-width:1;stroke-linecap:butt;stroke-linejoin:miter;marker:none;marker-start:none;marker-mid:none;marker-end:none;stroke-miterlimit:4;stroke-dasharray:none;stroke-dashoffset:0;stroke-opacity:1;visibility:visible;display:inline;overflow:visible" />
    <path
       style="opacity:1;color:black;fill:url(#linearGradient2385);fill-opacity:1;fill-rule:evenodd;stroke:none;stroke-width:1;stroke-linecap:butt;stroke-linejoin:miter;marker:none;marker-start:none;marker-mid:none;marker-end:none;stroke-miterlimit:4;stroke-dasharray:none;stroke-dashoffset:0;stroke-opacity:1;visibility:visible;display:inline;overflow:visible"
       d="M 18.848349,17.479541 L 14.252839,16.461549 L 14.630951,15.152701 L 19.197375,16.083437 C 19.575486,16.199779 19.982683,16.432463 19.837256,16.985088 C 19.693533,17.531231 19.255546,17.595883 18.848349,17.479541 z "
       id="path2296"
       sodipodi:nodetypes="cccczc" />
    <path
       sodipodi:nodetypes="cccczc"
       id="path2298"
       d="M 19.720914,14.316494 L 15.125405,13.327587 L 15.503517,12.018739 L 20.06994,12.92039 C 20.448051,13.036732 20.855248,13.269416 20.709821,13.82204 C 20.566098,14.368183 20.128111,14.432836 19.720914,14.316494 z "
       style="opacity:1;color:black;fill:url(#linearGradient2383);fill-opacity:1;fill-rule:evenodd;stroke:none;stroke-width:1;stroke-linecap:butt;stroke-linejoin:miter;marker:none;marker-start:none;marker-mid:none;marker-end:none;stroke-miterlimit:4;stroke-dasharray:none;stroke-dashoffset:0;stroke-opacity:1;visibility:visible;display:inline;overflow:visible" />
    <path
       style="opacity:1;color:black;fill:url(#linearGradient2381);fill-opacity:1;fill-rule:evenodd;stroke:none;stroke-width:1;stroke-linecap:butt;stroke-linejoin:miter;marker:none;marker-start:none;marker-mid:none;marker-end:none;stroke-miterlimit:4;stroke-dasharray:none;stroke-dashoffset:0;stroke-opacity:1;visibility:visible;display:inline;overflow:visible"
       d="M 20.564393,11.182531 L 15.968885,10.193624 L 16.346996,8.8847763 L 20.913419,9.7864268 C 21.291531,9.9027687 21.698728,10.135453 21.5533,10.688078 C 21.409578,11.234221 20.97159,11.298873 20.564393,11.182531 z "
       id="path2300"
       sodipodi:nodetypes="cccczc" />
    <path
       transform="matrix(0.85283,0,0,0.75178,11.14152,3.862721)"
       d="M 27.625 46.375 A 11.1875 5.875 0 1 1  5.25,46.375 A 11.1875 5.875 0 1 1  27.625 46.375 z"
       sodipodi:ry="5.875"
       sodipodi:rx="11.1875"
       sodipodi:cy="46.375"
       sodipodi:cx="16.4375"
       id="path2389"
       style="opacity:0.29545456;color:black;fill:none;fill-opacity:1;fill-rule:evenodd;stroke:url(#linearGradient2405);stroke-width:1.16238523;stroke-linecap:butt;stroke-linejoin:miter;marker:none;marker-start:none;marker-mid:none;marker-end:none;stroke-miterlimit:4;stroke-dasharray:none;stroke-dashoffset:0;stroke-opacity:1;visibility:visible;display:inline;overflow:visible"
       sodipodi:type="arc" />
  </g>
</svg>
