#define max_toggled_width 10
#define max_toggled_height 10
static unsigned char max_toggled_bits[] = {
   0x00, 0x00, 0x00, 0x00, 0xf0, 0x00, 0x9c, 0x00, 0x94, 0x00, 0xf4, 0x00,
   0x44, 0x00, 0x7c, 0x00, 0x00, 0x00, 0x00, 0x00 };
