#define shade_toggled_width 11
#define shade_toggled_height 11
static unsigned char shade_toggled_bits[] = {
   0xff, 0x07, 0xff, 0x07, 0x01, 0x04, 0x71, 0x04, 0x71, 0x04, 0x71, 0x04,
   0xfd, 0x05, 0xf9, 0x04, 0x71, 0x04, 0x21, 0x04, 0xff, 0x07 };
