#define max_width 8
#define max_height 8
static unsigned char max_bits[] = {
   0xe7, 0xe7, 0xc3, 0x00, 0x00, 0xc3, 0xe7, 0xe7 };
