#define close_width 10
#define close_height 10
static unsigned char close_bits[] = {
   0x00, 0x00, 0x00, 0x00, 0xc7, 0x01, 0xee, 0x00, 0x7c, 0x00, 0x38, 0x00,
   0x38, 0x00, 0x7c, 0x00, 0xee, 0x00, 0xc7, 0x01 };
