#define bullet_width 11
#define bullet_height 14
static unsigned char bullet_bits[] = {
   0xff, 0x01, 0x01, 0x01, 0x01, 0x03, 0x7d, 0x03, 0x01, 0x03, 0x01, 0x03,
   0x01, 0x03, 0x01, 0x03, 0x7d, 0x03, 0x01, 0x03, 0x01, 0x03, 0xff, 0x03,
   0xfc, 0x03, 0x00, 0x00 };
