#define iconify_width 14
#define iconify_height 14
static unsigned char iconify_bits[] = {
   0xff, 0x3f, 0x11, 0x21, 0x11, 0x21, 0x11, 0x21, 0x1f, 0x21, 0x01, 0x21,
   0x01, 0x21, 0x01, 0x21, 0xff, 0x21, 0x01, 0x20, 0x01, 0x20, 0x01, 0x20,
   0x01, 0x20, 0xff, 0x3f };
