#define close_width 14
#define close_height 14
static unsigned char close_bits[] = {
   0xff, 0x3f, 0x01, 0x20, 0x01, 0x20, 0xe1, 0x21, 0xf1, 0x23, 0xf9, 0x27,
   0xf9, 0x27, 0xf9, 0x27, 0xf9, 0x27, 0xf1, 0x23, 0xe1, 0x21, 0x01, 0x20,
   0x01, 0x20, 0xff, 0x3f };
