#define close_width 11
#define close_height 11
static unsigned char close_bits[] = {
   0x70, 0x00, 0x00, 0x00, 0x00, 0x00, 0x20, 0x00, 0x21, 0x04, 0xf9, 0x04,
   0x21, 0x04, 0x20, 0x00, 0x00, 0x00, 0x00, 0x00, 0x70, 0x00 };
