#define desk_toggled_width 11
#define desk_toggled_height 11
static unsigned char desk_toggled_bits[] = {
   0x70, 0x00, 0x20, 0x00, 0x20, 0x00, 0x70, 0x00, 0x89, 0x04, 0xaf, 0x07,
   0x89, 0x04, 0x70, 0x00, 0x20, 0x00, 0x20, 0x00, 0x70, 0x00 };
