#define iconify_width 11
#define iconify_height 11
static unsigned char iconify_bits[] = {
   0x00, 0x00, 0x00, 0x00, 0x00, 0x00, 0x00, 0x00, 0x00, 0x00, 0x00, 0x00,
   0x00, 0x00, 0x04, 0x01, 0xfc, 0x01, 0x04, 0x01, 0x00, 0x00 };
