#define max_width 11
#define max_height 11
static unsigned char max_bits[] = {
   0x00, 0x00, 0xe0, 0x03, 0x80, 0x03, 0x00, 0x03, 0x40, 0x02, 0x30, 0x02,
   0x30, 0x00, 0x08, 0x00, 0x06, 0x00, 0x06, 0x00, 0x00, 0x00 };
