#define max_toggled_width 11
#define max_toggled_height 11
static unsigned char max_toggled_bits[] = {
   0xc0, 0x07, 0x00, 0x07, 0x00, 0x06, 0x80, 0x04, 0x40, 0x04, 0x20, 0x00,
   0x11, 0x00, 0x09, 0x00, 0x03, 0x00, 0x07, 0x00, 0x1f, 0x00 };
