#define desk_toggled_width 16
#define desk_toggled_height 16
static unsigned char desk_toggled_bits[] = {
   0xfc, 0x3f, 0x02, 0x40, 0x01, 0x80, 0x01, 0x80, 0x71, 0x8e, 0x71, 0x8e,
   0x71, 0x8e, 0x01, 0x80, 0x01, 0x80, 0x71, 0x8e, 0x71, 0x8e, 0x71, 0x8e,
   0x01, 0x80, 0x01, 0x80, 0x02, 0x40, 0xfc, 0x3f };
