#define bullet_width 8
#define bullet_height 7
static unsigned char bullet_bits[] = {
   0x08, 0x18, 0x38, 0x70, 0xe0, 0xff, 0x00 };
