#define close_width 8
#define close_height 8
static unsigned char close_bits[] = {
   0xff, 0xff, 0xc0, 0xe0, 0x70, 0x38, 0x1c, 0x0e };
