#define shade_toggled_width 10
#define shade_toggled_height 10
static unsigned char shade_toggled_bits[] = {
   0x00, 0x00, 0x00, 0x00, 0xfe, 0x00, 0xfe, 0x00, 0x00, 0x00, 0x7c, 0x00,
   0x38, 0x00, 0x10, 0x00, 0x00, 0x00, 0x00, 0x00 };
