#define shade_width 12
#define shade_height 12
static unsigned char shade_bits[] = {
   0x00, 0x00, 0xfe, 0x07, 0xfe, 0x07, 0x02, 0x04, 0x62, 0x04, 0xf2, 0x04,
   0xfa, 0x05, 0x62, 0x04, 0x62, 0x04, 0x02, 0x04, 0xfe, 0x07, 0x00, 0x00 };
