#define shade_toggled_width 12
#define shade_toggled_height 12
static unsigned char shade_toggled_bits[] = {
   0x00, 0x00, 0xfe, 0x07, 0xfe, 0x07, 0x02, 0x04, 0x62, 0x04, 0x62, 0x04,
   0xfa, 0x05, 0xf2, 0x04, 0x62, 0x04, 0x02, 0x04, 0xfe, 0x07, 0x00, 0x00 };
