#define max_toggled_width 11
#define max_toggled_height 11
static unsigned char max_toggled_bits[] = {
   0x00, 0x00, 0x00, 0x00, 0xfe, 0x03, 0xfe, 0x03, 0x02, 0x02, 0x02, 0x02,
   0x02, 0x02, 0x02, 0x02, 0x02, 0x02, 0x02, 0x02, 0xfe, 0x03 };
