#define shade_width 11
#define shade_height 11
static unsigned char shade_bits[] = {
   0xfe, 0x03, 0xfe, 0x03, 0x00, 0x00, 0x00, 0x00, 0x00, 0x00, 0x00, 0x00,
   0x00, 0x00, 0x00, 0x00, 0x00, 0x00, 0x00, 0x00, 0x00, 0x00 };
