#define desk_toggled_width 5
#define desk_toggled_height 5
static unsigned char desk_toggled_bits[] = {
   0x11, 0x00, 0x00, 0x00, 0x11 };
