#define shade_width 5
#define shade_height 5
static unsigned char shade_bits[] = {
   0x1f, 0x11, 0x1f, 0x00, 0x00 };
