#define max_width 8
#define max_height 8
static unsigned char max_bits[] = {
   0xff, 0xff, 0xe0, 0xc0, 0xc0, 0xc0, 0xc0, 0xc0 };
