#define max_width 7
#define max_height 7
static unsigned char max_bits[] = {
   0x7e, 0x7e, 0x42, 0x4f, 0x49, 0x79, 0x0f };
