#define max_toggled_width 10
#define max_toggled_height 10
static unsigned char max_toggled_bits[] = {
   0xf0, 0x03, 0x10, 0x02, 0xff, 0x02, 0xff, 0x02, 0x91, 0x02, 0xf1, 0x03,
   0x81, 0x00, 0x81, 0x00, 0x81, 0x00, 0xff, 0x00 };
