#define max_toggled_width 10
#define max_toggled_height 10
static unsigned char max_toggled_bits[] = {
   0x00, 0x00, 0xf0, 0x01, 0x10, 0x01, 0x1e, 0x01, 0x12, 0x01, 0xf2, 0x01,
   0x42, 0x00, 0x42, 0x00, 0x7e, 0x00, 0x00, 0x00 };
