#define close_pressed_width 11
#define close_pressed_height 11
static unsigned char close_pressed_bits[] = {
   0x00, 0x00, 0x00, 0x00, 0x04, 0x04, 0x08, 0x02, 0x10, 0x01, 0xa0, 0x00,
   0x40, 0x00, 0xa0, 0x00, 0x10, 0x01, 0x08, 0x02, 0x04, 0x04 };
