#define desk_width 11
#define desk_height 11
static unsigned char desk_bits[] = {
   0x00, 0x00, 0x00, 0x00, 0x30, 0x07, 0x30, 0x07, 0xf0, 0x07, 0xff, 0x07,
   0xf0, 0x07, 0x30, 0x07, 0x30, 0x07, 0x00, 0x00, 0x00, 0x00 };
