#define close_width 12
#define close_height 12
static unsigned char close_bits[] = {
   0xff, 0x0f, 0x01, 0x08, 0xfd, 0x0b, 0xfd, 0x0b, 0xfd, 0x0b, 0xfd, 0x0b,
   0xfd, 0x0b, 0xfd, 0x0b, 0xfd, 0x0b, 0xfd, 0x0b, 0x01, 0x08, 0xff, 0x0f };
