#define max_toggled_width 5
#define max_toggled_height 5
static unsigned char max_toggled_bits[] = {
   0x1c, 0x14, 0x1f, 0x05, 0x07 };
