#define desk_toggled_width 8
#define desk_toggled_height 8
static unsigned char desk_toggled_bits[] = {
   0xc3, 0xc3, 0x00, 0x00, 0x00, 0x00, 0xc3, 0xc3 };
