#define max_width 6
#define max_height 6
static unsigned char max_bits[] = {
   0x3f, 0x21, 0x2f, 0x29, 0x29, 0x3f };
