#define close_pressed_width 12
#define close_pressed_height 12
static unsigned char close_pressed_bits[] = {
   0x00, 0x00, 0x00, 0x00, 0x18, 0x06, 0x3c, 0x0f, 0xfc, 0x0f, 0xf8, 0x07,
   0xf0, 0x03, 0xf0, 0x03, 0xf8, 0x07, 0xfc, 0x0f, 0x3c, 0x0f, 0x18, 0x06 };
