#define close_hover_width 10
#define close_hover_height 10
static unsigned char close_hover_bits[] = {
   0x00, 0x00, 0x44, 0x00, 0xaa, 0x00, 0x11, 0x01, 0x82, 0x00, 0x44, 0x00,
   0x82, 0x00, 0x11, 0x01, 0xaa, 0x00, 0x44, 0x00 };
