#define close_width 8
#define close_height 8
static unsigned char close_bits[] = {
   0x00, 0x22, 0x77, 0x3e, 0x1c, 0x3e, 0x77, 0x22 };
