#define iconify_hover_width 10
#define iconify_hover_height 10
static unsigned char iconify_hover_bits[] = {
   0x00, 0x00, 0x00, 0x00, 0x00, 0x00, 0x00, 0x00, 0x00, 0x00, 0xfe, 0x00,
   0x82, 0x00, 0x82, 0x00, 0x82, 0x00, 0xfe, 0x00 };
