#define shade_hover_width 9
#define shade_hover_height 9
static unsigned char shade_hover_bits[] = {
   0xfe, 0x00, 0x82, 0x00, 0x82, 0x00, 0x82, 0x00, 0xfe, 0x00, 0x00, 0x00,
   0x00, 0x00, 0x00, 0x00, 0x00, 0x00 };
