#define iconify_width 10
#define iconify_height 10
static unsigned char iconify_bits[] = {
   0x00, 0x00, 0x00, 0x00, 0x60, 0x00, 0xb0, 0x00, 0x30, 0x00, 0x78, 0x00,
   0xfc, 0x00, 0xfc, 0x00, 0xff, 0x03, 0x00, 0x00 };
