#define pumpkiny_width 10
#define pumpkiny_height 10
static unsigned char pumpkiny_bits[] = {
   0xfc, 0x00, 0xfe, 0x01, 0xff, 0x03, 0x77, 0x03, 0x23, 0x02, 0xff, 0x03,
   0xff, 0x03, 0xab, 0x03, 0xaa, 0x01, 0xfc, 0x00 };
