#define shade_pressed_width 11
#define shade_pressed_height 11
static unsigned char shade_pressed_bits[] = {
   0x00, 0x00, 0x00, 0x00, 0xfc, 0x07, 0x04, 0x04, 0xfc, 0x07, 0x00, 0x00,
   0x00, 0x00, 0x00, 0x00, 0x00, 0x00, 0x00, 0x00, 0x00, 0x00 };
