#define iconify_width 16
#define iconify_height 16
static unsigned char iconify_bits[] = {
   0x00, 0x00, 0xfe, 0x7f, 0x01, 0x80, 0x01, 0x80, 0x01, 0x80, 0x01, 0x80,
   0x01, 0x80, 0x01, 0x80, 0x01, 0x80, 0x01, 0x80, 0xf1, 0x8f, 0xf1, 0x8f,
   0x01, 0x80, 0x01, 0x80, 0xfe, 0x7f, 0x00, 0x00 };
