#define max_toggled_width 16
#define max_toggled_height 16
static unsigned char max_toggled_bits[] = {
   0x00, 0x00, 0xfe, 0x7f, 0x01, 0x80, 0x01, 0x80, 0x01, 0x80, 0xe1, 0x87,
   0xe1, 0x87, 0x21, 0x84, 0x21, 0x84, 0x21, 0x84, 0xe1, 0x87, 0x01, 0x80,
   0x01, 0x80, 0x01, 0x80, 0xfe, 0x7f, 0x00, 0x00 };
