#define c_width 10
#define c_height 10
static unsigned char c_bits[] = {
   0x30, 0x00, 0x30, 0x00, 0x30, 0x00, 0xfe, 0x01, 0xfe, 0x01, 0x30, 0x00,
   0x30, 0x00, 0x30, 0x00, 0x30, 0x00, 0x30, 0x00 };
