#define iconify_width 10
#define iconify_height 10
static unsigned char iconify_bits[] = {
   0x00, 0x00, 0xfc, 0x00, 0x02, 0x01, 0x79, 0x02, 0xcd, 0x02, 0xcd, 0x02,
   0x79, 0x02, 0x02, 0x01, 0xfc, 0x00, 0x00, 0x00 };
