#define ghost_width 10
#define ghost_height 10
static unsigned char ghost_bits[] = {
   0x7c, 0x00, 0xfe, 0x00, 0xfe, 0x00, 0xbb, 0x01, 0xbb, 0x01, 0xff, 0x01,
   0xc7, 0x01, 0xff, 0x01, 0xff, 0x01, 0x55, 0x01 };
