#define skull_width 10
#define skull_height 10
static unsigned char skull_bits[] = {
   0xfe, 0x01, 0xfe, 0x01, 0xff, 0x03, 0x33, 0x03, 0x33, 0x03, 0xff, 0x03,
   0xcf, 0x03, 0xff, 0x03, 0xfe, 0x01, 0xb6, 0x01 };
