#define close_width 11
#define close_height 9
static unsigned char close_bits[] = {
   0xff, 0x07, 0xfb, 0x06, 0x77, 0x07, 0xaf, 0x07, 0xdf, 0x07, 0xaf, 0x07,
   0x77, 0x07, 0xfb, 0x06, 0xff, 0x07 };
