#define close_width 12
#define close_height 12
static unsigned char close_bits[] = {
   0x00, 0x00, 0x00, 0x00, 0x00, 0x00, 0x88, 0x00, 0x50, 0x00, 0x20, 0x00,
   0x50, 0x00, 0x88, 0x00, 0x00, 0x00, 0x00, 0x00, 0x00, 0x00, 0x00, 0x00 };
