#define close_width 11
#define close_height 11
static unsigned char close_bits[] = {
   0xff, 0x07, 0xff, 0x07, 0x03, 0x06, 0x03, 0x06, 0x73, 0x06, 0x73, 0x06,
   0x73, 0x06, 0x03, 0x06, 0x03, 0x06, 0xff, 0x07, 0xff, 0x07 };
