#define close_pressed_width 9
#define close_pressed_height 9
static unsigned char close_pressed_bits[] = {
   0x00, 0x00, 0x00, 0x00, 0x04, 0x01, 0x88, 0x00, 0x50, 0x00, 0x20, 0x00,
   0x50, 0x00, 0x88, 0x00, 0x04, 0x01 };
