#define max_pressed_width 9
#define max_pressed_height 9
static unsigned char max_pressed_bits[] = {
   0x00, 0x00, 0x00, 0x00, 0xfc, 0x01, 0xfc, 0x01, 0x04, 0x01, 0x04, 0x01,
   0x04, 0x01, 0x04, 0x01, 0xfc, 0x01 };
