#define shade_pressed_width 9
#define shade_pressed_height 9
static unsigned char shade_pressed_bits[] = {
   0x00, 0x00, 0x00, 0x00, 0xfc, 0x01, 0xfc, 0x01, 0x00, 0x00, 0x00, 0x00,
   0x00, 0x00, 0x00, 0x00, 0x00, 0x00 };
