#define max_width 16
#define max_height 16
static unsigned char max_bits[] = {
   0xfc, 0x3f, 0x02, 0x40, 0x01, 0x80, 0x01, 0x80, 0xf1, 0x8f, 0xf1, 0x8f,
   0x11, 0x88, 0x11, 0x88, 0x11, 0x88, 0x11, 0x88, 0x11, 0x88, 0xf1, 0x8f,
   0x01, 0x80, 0x01, 0x80, 0x02, 0x40, 0xfc, 0x3f };
