#define close2_width 9
#define close2_height 9
static unsigned char close2_bits[] = {
   0x44, 0x00, 0xaa, 0x00, 0x11, 0x01, 0x82, 0x00, 0x44, 0x00, 0x82, 0x00,
   0x11, 0x01, 0xaa, 0x00, 0x44, 0x00 };
