#define max_width 13
#define max_height 13
static unsigned char max_bits[] = {
   0x00, 0x00, 0xfe, 0x0f, 0xfe, 0x0f, 0x02, 0x08, 0x02, 0x08, 0x02, 0x08,
   0x02, 0x08, 0x02, 0x08, 0x02, 0x08, 0x02, 0x08, 0x02, 0x08, 0xfe, 0x0f,
   0x00, 0x00 };
