#define bullet_width 5
#define bullet_height 5
static unsigned char bullet_bits[] = {
   0x01, 0x07, 0x1f, 0x07, 0x01 };
