#define iconify_width 7
#define iconify_height 7
static unsigned char iconify_bits[] = {
   0x00, 0x00, 0x40, 0x60, 0x70, 0x78, 0x7c };
