#define max_width 7
#define max_height 7
static unsigned char max_bits[] = {
   0x1f, 0x0f, 0x07, 0x03, 0x01, 0x00, 0x00 };
