<?xml version="1.0" encoding="UTF-8" standalone="no"?>
<!-- Created with Inkscape (http://www.inkscape.org/) -->
<svg
   xmlns:dc="http://purl.org/dc/elements/1.1/"
   xmlns:cc="http://web.resource.org/cc/"
   xmlns:rdf="http://www.w3.org/1999/02/22-rdf-syntax-ns#"
   xmlns:svg="http://www.w3.org/2000/svg"
   xmlns="http://www.w3.org/2000/svg"
   xmlns:xlink="http://www.w3.org/1999/xlink"
   xmlns:sodipodi="http://inkscape.sourceforge.net/DTD/sodipodi-0.dtd"
   xmlns:inkscape="http://www.inkscape.org/namespaces/inkscape"
   width="48.000000px"
   height="48.000000px"
   id="svg97"
   sodipodi:version="0.32"
   inkscape:version="0.42"
   sodipodi:docbase="/home/david/cvs/tango-icon-theme-novell/scalable/mimetypes"
   sodipodi:docname="x-directory-normal.svg"
   inkscape:export-filename="/home/jimmac/Desktop/horlander-style3.png"
   inkscape:export-xdpi="90.000000"
   inkscape:export-ydpi="90.000000">
  <defs
     id="defs3">
    <linearGradient
       id="linearGradient3096">
      <stop
         id="stop3098"
         offset="0"
         style="stop-color:#424242;stop-opacity:1;" />
      <stop
         id="stop3100"
         offset="1.0000000"
         style="stop-color:#777777;stop-opacity:1.0000000;" />
    </linearGradient>
    <linearGradient
       id="linearGradient3154">
      <stop
         style="stop-color:#505f89;stop-opacity:1.0000000;"
         offset="0.0000000"
         id="stop3156" />
      <stop
         style="stop-color:#4d65aa;stop-opacity:0.0000000;"
         offset="1.0000000"
         id="stop3158" />
    </linearGradient>
    <linearGradient
       id="linearGradient3144">
      <stop
         style="stop-color:#808080;stop-opacity:1;"
         offset="0"
         id="stop3146" />
      <stop
         style="stop-color:#3c3c3c;stop-opacity:1.0000000;"
         offset="1.0000000"
         id="stop3148" />
    </linearGradient>
    <linearGradient
       id="linearGradient101">
      <stop
         style="stop-color:#cacaca;stop-opacity:1.0000000;"
         offset="0.0000000"
         id="stop102" />
      <stop
         id="stop3086"
         offset="0.16666667"
         style="stop-color:#aeaeae;stop-opacity:1.0000000;" />
      <stop
         style="stop-color:#d4d4d4;stop-opacity:1.0000000;"
         offset="1.0000000"
         id="stop103" />
    </linearGradient>
    <linearGradient
       id="linearGradient319"
       inkscape:collect="always">
      <stop
         id="stop320"
         offset="0"
         style="stop-color:#ffffff;stop-opacity:1;" />
      <stop
         id="stop321"
         offset="1"
         style="stop-color:#ffffff;stop-opacity:0;" />
    </linearGradient>
    <linearGradient
       id="linearGradient1789">
      <stop
         style="stop-color:#202020;stop-opacity:1.0000000;"
         offset="0.0000000"
         id="stop1790" />
      <stop
         style="stop-color:#b9b9b9;stop-opacity:1.0000000;"
         offset="1.0000000"
         id="stop1791" />
    </linearGradient>
    <radialGradient
       inkscape:collect="always"
       xlink:href="#linearGradient1789"
       id="radialGradient238"
       gradientUnits="userSpaceOnUse"
       gradientTransform="matrix(1.053233,0.000000,0.106922,1.021055,-0.879573,-1.318166)"
       cx="20.706017"
       cy="37.517986"
       fx="20.706017"
       fy="37.517986"
       r="30.905205" />
    <linearGradient
       id="linearGradient3983">
      <stop
         style="stop-color:#ffffff;stop-opacity:0.87628865;"
         offset="0.0000000"
         id="stop3984" />
      <stop
         style="stop-color:#fffffe;stop-opacity:0.0000000;"
         offset="1.0000000"
         id="stop3985" />
    </linearGradient>
    <linearGradient
       inkscape:collect="always"
       xlink:href="#linearGradient101"
       id="linearGradient486"
       gradientTransform="matrix(1.320205,0.000000,0.000000,0.814576,-0.879573,-1.318166)"
       x1="19.125988"
       y1="49.157200"
       x2="19.125988"
       y2="19.833466"
       gradientUnits="userSpaceOnUse" />
    <linearGradient
       inkscape:collect="always"
       xlink:href="#linearGradient3983"
       id="linearGradient491"
       gradientUnits="userSpaceOnUse"
       gradientTransform="matrix(1.516844,0.000000,0.000000,0.708978,-0.879573,-1.318166)"
       x1="6.2297964"
       y1="13.773066"
       x2="9.8980894"
       y2="66.834053" />
    <linearGradient
       gradientUnits="userSpaceOnUse"
       y2="46.689312"
       x2="12.853771"
       y1="32.567184"
       x1="13.035696"
       gradientTransform="matrix(1.317489,0.000000,0.000000,0.816256,-0.879573,-1.318166)"
       id="linearGradient322"
       xlink:href="#linearGradient319"
       inkscape:collect="always" />
    <linearGradient
       inkscape:collect="always"
       xlink:href="#linearGradient3144"
       id="linearGradient3152"
       x1="15.627831"
       y1="30.986992"
       x2="15.627831"
       y2="40.138306"
       gradientUnits="userSpaceOnUse" />
    <linearGradient
       inkscape:collect="always"
       xlink:href="#linearGradient3154"
       id="linearGradient3160"
       x1="18.827934"
       y1="5.9092765"
       x2="18.786077"
       y2="9.0026054"
       gradientUnits="userSpaceOnUse"
       gradientTransform="matrix(1.000000,0.000000,8.203540e-3,0.843319,-3.050531e-2,0.582627)" />
    <linearGradient
       inkscape:collect="always"
       xlink:href="#linearGradient3154"
       id="linearGradient3164"
       gradientUnits="userSpaceOnUse"
       gradientTransform="matrix(1.000000,0.000000,1.512174e-2,0.711187,-5.623101e-2,1.073968)"
       x1="18.827934"
       y1="5.9092765"
       x2="18.786077"
       y2="9.0026054" />
    <linearGradient
       gradientUnits="userSpaceOnUse"
       y2="6.1802502"
       x2="15.514889"
       y1="31.367750"
       x1="18.112709"
       id="linearGradient3104"
       xlink:href="#linearGradient3096"
       inkscape:collect="always" />
  </defs>
  <sodipodi:namedview
     fill="#5a7aa4"
     id="base"
     pagecolor="#ffffff"
     bordercolor="#666666"
     borderopacity="0.10196078"
     inkscape:pageopacity="0.0"
     inkscape:pageshadow="2"
     inkscape:zoom="16.000000"
     inkscape:cx="22.347156"
     inkscape:cy="25.025597"
     inkscape:current-layer="layer1"
     showgrid="true"
     inkscape:grid-bbox="true"
     inkscape:document-units="px"
     inkscape:window-width="962"
     inkscape:window-height="869"
     inkscape:window-x="254"
     inkscape:window-y="81"
     inkscape:showpageshadow="false" />
  <metadata
     id="metadata4">
    <rdf:RDF>
      <cc:Work
         rdf:about="">
        <dc:format>image/svg+xml</dc:format>
        <dc:type
           rdf:resource="http://purl.org/dc/dcmitype/StillImage" />
        <dc:title>Folder Icon</dc:title>
        <dc:date />
        <dc:creator>
          <cc:Agent>
            <dc:title>Jakub Steiner</dc:title>
          </cc:Agent>
        </dc:creator>
        <cc:license
           rdf:resource="http://creativecommons.org/licenses/by/2.0/" />
        <dc:source>http://jimmac.musichall.cz</dc:source>
        <dc:subject>
          <rdf:Bag>
            <rdf:li>folder</rdf:li>
            <rdf:li>directory</rdf:li>
          </rdf:Bag>
        </dc:subject>
      </cc:Work>
      <cc:License
         rdf:about="http://creativecommons.org/licenses/by/2.0/">
        <cc:permits
           rdf:resource="http://web.resource.org/cc/Reproduction" />
        <cc:permits
           rdf:resource="http://web.resource.org/cc/Distribution" />
        <cc:requires
           rdf:resource="http://web.resource.org/cc/Notice" />
        <cc:requires
           rdf:resource="http://web.resource.org/cc/Attribution" />
        <cc:permits
           rdf:resource="http://web.resource.org/cc/DerivativeWorks" />
        <cc:requires
           rdf:resource="http://web.resource.org/cc/ShareAlike" />
      </cc:License>
    </rdf:RDF>
  </metadata>
  <g
     id="layer1"
     inkscape:label="Folder"
     inkscape:groupmode="layer">
    <g
       id="g189"
       style="fill-rule:nonzero;stroke:#000000;stroke-miterlimit:4.0000000"
       transform="matrix(1.040764,0.000000,-0.498064,-0.649603,12.36677,61.10839)"
       inkscape:export-filename="/home/jimmac/ximian_art/icons/nautilus/suse93/gnome-fs-directory.png"
       inkscape:export-xdpi="74.800003"
       inkscape:export-ydpi="74.800003">
      <g
         style="stroke:none"
         id="g190">
        <g
           id="g191">
          <g
             style="opacity:0.0000000"
             id="g192">
            <path
               d="M 9.9000000,39.700000 C 8.0000000,39.700000 5.7000000,38.300000 4.8000000,36.600000 L 3.0000000,33.100000 C 2.1000000,31.400000 2.5000000,28.900000 3.9000000,27.500000 L 4.7000000,26.700000 C 6.1000000,25.300000 8.8000000,24.200000 10.700000,24.200000 L 39.700000,24.200000 C 41.600000,24.200000 44.400000,25.200000 45.900000,26.400000 L 47.600000,27.800000 C 49.100000,29.000000 49.700000,31.500000 49.000000,33.200000 L 47.700000,36.300000 C 47.000000,38.100000 44.800000,39.500000 42.800000,39.500000 L 9.9000000,39.700000 z "
               id="path193" />
          </g>
          <g
             style="opacity:0.013599993"
             id="g194">
            <path
               d="M 5.0000000,27.500000 C 6.4000000,26.100000 9.0000000,25.000000 11.000000,25.000000 L 39.800000,25.000000 C 41.700000,25.000000 44.500000,26.000000 46.000000,27.300000 L 47.000000,28.200000 C 48.500000,29.400000 49.100000,31.900000 48.300000,33.700000 L 47.300000,36.200000 C 46.600000,38.000000 44.400000,39.400000 42.400000,39.400000 L 10.300000,39.500000 C 8.4000000,39.500000 6.1000000,38.100000 5.2000000,36.400000 L 3.7000000,33.600000 C 2.8000000,31.900000 3.2000000,29.300000 4.5000000,28.000000 L 5.0000000,27.500000 z "
               id="path195" />
          </g>
          <g
             style="opacity:0.027299942"
             id="g196">
            <path
               d="M 5.4000000,28.300000 C 6.7000000,26.900000 9.3000000,25.800000 11.200000,25.800000 L 39.800000,25.800000 C 41.700000,25.800000 44.500000,26.800000 45.900000,28.100000 L 46.400000,28.500000 C 47.800000,29.800000 48.400000,32.300000 47.700000,34.100000 L 47.000000,35.900000 C 46.300000,37.700000 44.100000,39.100000 42.200000,39.100000 L 11.000000,39.200000 C 9.1000000,39.200000 6.8000000,37.800000 5.9000000,36.100000 L 4.7000000,34.000000 C 3.8000000,32.300000 4.1000000,29.700000 5.4000000,28.400000 L 5.4000000,28.300000 z "
               id="path197" />
          </g>
          <g
             style="opacity:0.040899996"
             id="g198">
            <path
               d="M 5.9000000,28.900000 C 7.0000000,27.600000 9.5000000,26.600000 11.400000,26.600000 L 39.800000,26.600000 C 41.700000,26.600000 44.400000,27.700000 45.800000,29.000000 C 47.200000,30.300000 47.700000,32.800000 46.900000,34.600000 L 46.400000,35.700000 C 45.700000,37.500000 43.500000,38.900000 41.600000,39.000000 L 11.300000,39.000000 C 9.4000000,39.000000 7.1000000,37.600000 6.2000000,35.900000 L 5.4000000,34.400000 C 4.5000000,32.700000 4.7000000,30.200000 5.8000000,28.900000 L 5.9000000,28.900000 z "
               id="path199" />
          </g>
          <g
             style="opacity:0.054499988"
             id="g200">
            <path
               d="M 6.5000000,29.500000 C 7.5000000,28.300000 9.8000000,27.400000 11.700000,27.400000 L 39.800000,27.400000 C 41.700000,27.400000 44.300000,28.400000 45.400000,29.600000 C 46.500000,30.800000 46.900000,33.200000 46.200000,35.000000 L 46.000000,35.400000 C 45.300000,37.200000 43.100000,38.600000 41.200000,38.700000 L 11.700000,38.800000 C 9.8000000,38.800000 7.5000000,37.400000 6.6000000,35.700000 L 6.2000000,34.900000 C 5.3000000,33.200000 5.4000000,30.800000 6.4000000,29.600000 L 6.5000000,29.500000 z "
               id="path201" />
          </g>
          <g
             style="opacity:0.068200000"
             id="g202">
            <path
               d="M 7.0000000,30.100000 C 7.8000000,29.000000 10.000000,28.100000 11.900000,28.100000 L 39.800000,28.100000 C 41.700000,28.100000 44.100000,29.000000 45.100000,30.100000 C 46.100000,31.200000 46.300000,33.500000 45.600000,35.200000 C 44.900000,36.900000 42.700000,38.300000 40.800000,38.300000 L 12.200000,38.400000 C 10.300000,38.400000 8.0000000,37.000000 7.1000000,35.300000 L 7.0000000,35.100000 C 6.1000000,33.400000 6.1000000,31.100000 6.9000000,30.000000 L 7.0000000,30.100000 z "
               id="path203" />
          </g>
          <g
             style="opacity:0.081799991"
             id="g204">
            <path
               d="M 7.5000000,30.700000 C 8.1000000,29.700000 10.200000,28.900000 12.200000,28.900000 L 39.900000,28.900000 C 41.800000,28.900000 44.000000,29.700000 44.800000,30.700000 C 45.600000,31.700000 45.700000,33.800000 45.100000,35.300000 C 44.500000,36.800000 42.400000,38.100000 40.500000,38.100000 L 12.800000,38.200000 C 10.900000,38.200000 8.7000000,36.900000 7.9000000,35.300000 C 7.1000000,33.700000 7.0000000,31.600000 7.6000000,30.600000 L 7.5000000,30.700000 z "
               id="path205" />
          </g>
          <g
             style="opacity:0.095500000"
             id="g206">
            <path
               d="M 8.1000000,31.300000 C 8.6000000,30.400000 10.500000,29.700000 12.500000,29.700000 L 40.000000,29.700000 C 41.900000,29.700000 44.000000,30.400000 44.600000,31.300000 C 45.200000,32.200000 45.200000,34.100000 44.700000,35.400000 C 44.200000,36.700000 42.100000,37.900000 40.200000,37.900000 L 13.200000,38.000000 C 11.300000,38.000000 9.1000000,36.800000 8.5000000,35.400000 C 7.8000000,34.000000 7.7000000,32.100000 8.1000000,31.200000 L 8.1000000,31.300000 z "
               id="path207" />
          </g>
          <g
             style="opacity:0.10909999"
             id="g208">
            <path
               d="M 8.6000000,31.900000 C 8.9000000,31.100000 10.700000,30.500000 12.700000,30.500000 L 39.900000,30.500000 C 41.800000,30.500000 43.700000,31.200000 44.100000,32.000000 C 44.500000,32.800000 44.400000,34.400000 44.000000,35.600000 C 43.600000,36.800000 41.600000,37.700000 39.600000,37.700000 L 13.600000,37.800000 C 11.700000,37.800000 9.6000000,36.800000 9.1000000,35.600000 C 8.5000000,34.400000 8.3000000,32.700000 8.6000000,32.000000 L 8.6000000,31.900000 z "
               id="path209" />
          </g>
          <g
             style="opacity:0.12269998"
             id="g210">
            <path
               d="M 9.2000000,32.500000 C 9.3000000,31.800000 11.000000,31.300000 13.000000,31.300000 L 40.000000,31.300000 C 41.900000,31.300000 43.700000,31.900000 43.900000,32.600000 C 44.100000,33.300000 43.900000,34.700000 43.600000,35.700000 C 43.200000,36.700000 41.300000,37.500000 39.400000,37.500000 L 14.200000,37.600000 C 12.300000,37.600000 10.300000,36.700000 9.8000000,35.700000 C 9.3000000,34.600000 9.1000000,33.200000 9.2000000,32.600000 L 9.2000000,32.500000 z "
               id="path211" />
          </g>
          <g
             style="opacity:0.13640000"
             id="g212">
            <path
               d="M 9.7000000,33.100000 C 9.7000000,32.500000 11.300000,32.100000 13.200000,32.100000 L 40.000000,32.100000 C 41.900000,32.100000 43.500000,32.600000 43.500000,33.200000 C 43.500000,33.800000 43.300000,35.000000 42.900000,35.800000 C 42.500000,36.600000 40.800000,37.300000 38.800000,37.300000 L 14.500000,37.300000 C 12.600000,37.300000 10.700000,36.600000 10.300000,35.700000 C 9.9000000,34.800000 9.6000000,33.600000 9.6000000,33.100000 L 9.7000000,33.100000 z "
               id="path213" />
          </g>
          <g
             style="opacity:0.14999999"
             id="g214">
            <path
               d="M 15.000000,37.000000 C 13.100000,37.000000 11.100000,36.100000 10.700000,34.900000 C 10.300000,33.700000 11.500000,32.800000 13.400000,32.800000 L 40.000000,32.800000 C 41.900000,32.800000 43.200000,33.700000 42.700000,34.900000 C 42.300000,36.000000 40.400000,37.000000 38.500000,37.000000 L 15.000000,37.000000 z "
               id="path215" />
          </g>
        </g>
      </g>
    </g>
    <path
       d="M 4.5217805,38.687417 C 4.5435766,39.103721 4.9816854,39.520026 5.3979900,39.520026 L 36.725011,39.520026 C 37.141313,39.520026 37.535823,39.103721 37.514027,38.687417 L 36.577584,11.460682 C 36.555788,11.044379 36.117687,10.628066 35.701383,10.628066 L 22.430510,10.628066 C 21.945453,10.628066 21.196037,10.312477 21.028866,9.5214338 L 20.417475,6.6283628 C 20.262006,5.8926895 19.535261,5.5904766 19.118957,5.5904766 L 4.3400975,5.5904766 C 3.9237847,5.5904766 3.5292767,6.0067807 3.5510726,6.4230849 L 4.5217805,38.687417 z "
       id="path216"
       style="fill:url(#radialGradient238);fill-opacity:1.0000000;fill-rule:nonzero;stroke:url(#linearGradient3104);stroke-width:1.0000000;stroke-linecap:round;stroke-linejoin:round;stroke-miterlimit:4.0000000;stroke-dasharray:none;stroke-opacity:1.0000000"
       sodipodi:nodetypes="ccccccssssccc" />
    <g
       id="g217"
       transform="matrix(1.040764,0.000000,5.449252e-2,1.365642,-8.401180,1.001865)"
       style="fill:url(#linearGradient3160);fill-opacity:1.0000000;fill-rule:nonzero;stroke:#000000;stroke-miterlimit:4.0000000"
       inkscape:export-filename="/home/jimmac/ximian_art/icons/nautilus/suse93/gnome-fs-directory.png"
       inkscape:export-xdpi="74.800003"
       inkscape:export-ydpi="74.800003">
      <path
         style="fill:url(#linearGradient3164);fill-opacity:1.0000000;stroke:none"
         d="M 30.071102,7.8706561 C 28.093008,7.5383178 27.226725,6.4061605 27.103792,4.9327744 C 27.023202,3.9562258 26.396033,3.7341382 26.096033,3.7341382 L 12.246383,3.7185527 C 11.946383,3.7185527 11.746383,3.9185527 11.746383,4.2185527 L 11.681742,8.1000000"
         id="path218"
         sodipodi:nodetypes="cscccc" />
    </g>
    <path
       style="color:#000000;fill:url(#linearGradient491);fill-opacity:1.0000000;fill-rule:nonzero;stroke:none;stroke-width:1.2138050;stroke-linecap:butt;stroke-linejoin:miter;marker:none;marker-start:none;marker-mid:none;marker-end:none;stroke-miterlimit:4.0000000;stroke-dashoffset:0.0000000;stroke-opacity:1.0000000;visibility:visible;display:block;overflow:visible;opacity:0.45142857"
       d="M 6.0683430,38.864023 C 6.0846856,39.176251 5.8874317,39.384402 5.5697582,39.280326 L 5.5697582,39.280326 C 5.2520766,39.176251 5.0330270,38.968099 5.0166756,38.655870 L 4.0689560,6.5913839 C 4.0526131,6.2791558 4.2341418,6.0906134 4.5463699,6.0906134 L 18.968420,6.0429196 C 19.280648,6.0429196 19.900363,6.3433923 20.101356,7.3651014 L 20.674845,10.180636 C 20.247791,9.7153790 20.255652,9.7010175 20.037287,9.0239299 L 19.631192,7.7647478 C 19.412142,7.0371009 18.932991,6.9328477 18.620763,6.9328477 L 5.7329889,6.9328477 C 5.4207613,6.9328477 5.2235075,7.1409999 5.2398583,7.4532364 L 6.1778636,38.968099 L 6.0683430,38.864023 z "
       id="path219"
       sodipodi:nodetypes="cccccccccscccccc" />
    <g
       style="stroke-miterlimit:4.0000000;stroke-width:0.99946535;stroke:none;fill-rule:nonzero;fill-opacity:0.75706214;fill:#ffffff"
       id="g220"
       transform="matrix(1.040764,0.000000,5.449252e-2,1.040764,-8.670199,2.670594)"
       inkscape:export-filename="/home/jimmac/ximian_art/icons/nautilus/suse93/gnome-fs-directory.png"
       inkscape:export-xdpi="74.800003"
       inkscape:export-ydpi="74.800003">
      <path
         style="fill-opacity:0.50847459;fill:#ffffff"
         d="M 42.417183,8.5151772 C 42.422267,8.4180642 42.289022,8.2681890 42.182066,8.2681716 L 29.150665,8.2660527 C 29.150665,8.2660527 30.062379,8.8540072 31.352477,8.8622963 L 42.405974,8.9333167 C 42.417060,8.7215889 42.408695,8.6772845 42.417183,8.5151772 z "
         id="path221"
         sodipodi:nodetypes="cscscs" />
    </g>
    <path
       style="fill:#ffffff;fill-opacity:1.0000000;fill-rule:nonzero;stroke:none;stroke-miterlimit:4.0000000"
       d="M 6.0417080,10.520382 C 6.0580558,10.832612 5.8608015,11.040764 5.5485723,11.040764 C 5.2363431,11.040764 5.0172918,10.832612 5.0009440,10.520382 C 4.9845963,10.208153 5.1818506,10.000000 5.4940798,10.000000 C 5.8063090,10.000000 6.0253603,10.208153 6.0417080,10.520382 z "
       id="path224" />
    <path
       style="fill:#ffffff;fill-opacity:1.0000000;fill-rule:nonzero;stroke:none;stroke-miterlimit:4.0000000"
       d="M 8.0417080,10.520382 C 8.0580557,10.832612 7.8608014,11.040764 7.5485722,11.040764 C 7.2363430,11.040764 7.0172917,10.832612 7.0009440,10.520382 C 6.9845962,10.208153 7.1818505,10.000000 7.4940797,10.000000 C 7.8063089,10.000000 8.0253602,10.208153 8.0417080,10.520382 z "
       id="path226" />
    <path
       style="fill:#ffffff;fill-opacity:1.0000000;fill-rule:nonzero;stroke:none;stroke-miterlimit:4.0000000"
       d="M 9.9990560,10.520382 C 10.015404,10.832612 9.8181503,11.040764 9.5059213,11.040764 C 9.1936917,11.040764 8.9746404,10.832612 8.9582927,10.520382 C 8.9419449,10.208153 9.1391992,10.000000 9.4514284,10.000000 C 9.7636573,10.000000 9.9827090,10.208153 9.9990560,10.520382 z "
       id="path227" />
    <path
       style="fill:#ffffff;fill-opacity:1.0000000;fill-rule:nonzero;stroke:none;stroke-miterlimit:4.0000000"
       d="M 12.041708,10.520382 C 12.058056,10.832611 11.860802,11.040764 11.548573,11.040764 C 11.236343,11.040764 11.017292,10.832611 11.000944,10.520382 C 10.984597,10.208153 11.181851,10.000000 11.494080,10.000000 C 11.806309,10.000000 12.025361,10.208153 12.041708,10.520382 z "
       id="path228" />
    <path
       style="fill:#ffffff;fill-opacity:1.0000000;fill-rule:nonzero;stroke:none;stroke-miterlimit:4.0000000"
       d="M 14.041708,10.520382 C 14.058056,10.832611 13.860801,11.040764 13.548572,11.040764 C 13.236343,11.040764 13.017292,10.832611 13.000944,10.520382 C 12.984596,10.208153 13.181850,10.000000 13.494080,10.000000 C 13.806309,10.000000 14.025360,10.208153 14.041708,10.520382 z "
       id="path229" />
    <path
       style="fill:#ffffff;fill-opacity:1.0000000;fill-rule:nonzero;stroke:none;stroke-miterlimit:4.0000000"
       d="M 15.999056,10.520382 C 16.015404,10.832611 15.818149,11.040764 15.505920,11.040764 C 15.193691,11.040764 14.974640,10.832611 14.958292,10.520382 C 14.941944,10.208153 15.139199,10.000000 15.451428,10.000000 C 15.763657,10.000000 15.982708,10.208153 15.999056,10.520382 z "
       id="path230" />
    <path
       style="fill:#ffffff;fill-opacity:1.0000000;fill-rule:nonzero;stroke:none;stroke-miterlimit:4.0000000"
       d="M 18.041708,10.520382 C 18.058056,10.832612 17.860801,11.040764 17.548572,11.040764 C 17.236343,11.040764 17.017292,10.832612 17.000944,10.520382 C 16.984596,10.208153 17.181851,10.000000 17.494080,10.000000 C 17.806309,10.000000 18.025360,10.208153 18.041708,10.520382 z "
       id="path231" />
    <path
       style="fill:#ffffff;fill-opacity:1.0000000;fill-rule:nonzero;stroke:none;stroke-miterlimit:4.0000000"
       d="M 20.037962,10.518510 C 20.054251,10.829616 19.857705,11.037020 19.546600,11.037020 C 19.235494,11.037020 19.017230,10.829616 19.000941,10.518510 C 18.984652,10.207404 19.181198,10.000000 19.492304,10.000000 C 19.803409,10.000000 20.021673,10.207404 20.037962,10.518510 z "
       id="path232" />
    <path
       style="color:#000000;fill:url(#linearGradient486);fill-opacity:1.0000000;fill-rule:nonzero;stroke:url(#linearGradient3152);stroke-width:1.0000000;stroke-linecap:butt;stroke-linejoin:round;marker:none;marker-start:none;marker-mid:none;marker-end:none;stroke-miterlimit:4.0000000;stroke-dasharray:none;stroke-dashoffset:0.0000000;stroke-opacity:1.0000000;visibility:visible;display:block"
       d="M 39.783532,39.510620 C 40.927426,39.466556 41.746608,38.414321 41.830567,37.189615 C 42.622354,25.640928 43.489927,15.957666 43.489927,15.957666 C 43.562082,15.710182 43.322016,15.462699 43.009787,15.462699 L 8.6386304,15.462699 C 8.6386304,15.462699 6.7883113,37.329591 6.7883113,37.329591 C 6.6737562,38.311657 6.3223038,39.134309 5.2384755,39.513304 L 39.783532,39.510620 z "
       id="path233"
       sodipodi:nodetypes="cscccscc"
       inkscape:export-filename="/home/jimmac/ximian_art/icons/nautilus/suse93/gnome-fs-directory.png"
       inkscape:export-xdpi="74.800003"
       inkscape:export-ydpi="74.800003" />
    <path
       sodipodi:nodetypes="ccsscsc"
       id="path304"
       d="M 9.6202444,16.463921 L 42.286343,16.528735 L 40.649797,36.468214 C 40.561876,37.539436 40.386619,37.958929 38.964641,37.958929 C 37.093139,37.958929 10.411673,37.926522 7.6948990,37.926522 C 7.9284973,37.605711 7.9662032,36.937903 7.9674953,36.921910 L 9.6202444,16.463921 z "
       style="opacity:1.0000000;fill:none;fill-opacity:1.0000000;fill-rule:evenodd;stroke:url(#linearGradient322);stroke-width:0.99999970px;stroke-linecap:round;stroke-linejoin:miter;stroke-opacity:1.0000000" />
    <path
       sodipodi:nodetypes="ccccc"
       id="path323"
       d="M 9.6202481,16.223182 L 8.4536014,31.866453 C 8.4536014,31.866453 16.749756,27.718375 27.119949,27.718375 C 37.490142,27.718375 42.675239,16.223182 42.675239,16.223182 L 9.6202481,16.223182 z "
       style="fill:#ffffff;fill-opacity:0.089285679;fill-rule:evenodd;stroke:none;stroke-width:1.0000000px;stroke-linecap:butt;stroke-linejoin:miter;stroke-opacity:1.0000000" />
  </g>
  <g
     inkscape:groupmode="layer"
     id="layer2"
     inkscape:label="pattern" />
</svg>
