#define desk_width 5
#define desk_height 5
static unsigned char desk_bits[] = {
   0x00, 0x0a, 0x00, 0x0a, 0x00 };
