#define desk_width 6
#define desk_height 6
static unsigned char desk_bits[] = {
   0x20, 0x30, 0x38, 0x3c, 0x3e, 0x3f };
