#define desk_width 11
#define desk_height 11
static unsigned char desk_bits[] = {
   0x00, 0x00, 0x00, 0x00, 0x60, 0x06, 0x60, 0x06, 0xe0, 0x07, 0xfe, 0x07,
   0xe0, 0x07, 0x60, 0x06, 0x60, 0x06, 0x00, 0x00, 0x00, 0x00 };
