#define close_pressed_width 11
#define close_pressed_height 11
static unsigned char close_pressed_bits[] = {
   0x00, 0x00, 0x00, 0x00, 0x0c, 0x06, 0x1c, 0x07, 0xb8, 0x03, 0xf0, 0x01,
   0xe0, 0x00, 0xf0, 0x01, 0xb8, 0x03, 0x1c, 0x07, 0x0c, 0x06 };
