#define max_width 7
#define max_height 7
static unsigned char max_bits[] = {
   0x7c, 0x78, 0x71, 0x63, 0x47, 0x0f, 0x1f };
