#define max_toggled_width 7
#define max_toggled_height 7
static unsigned char max_toggled_bits[] = {
   0x7c, 0x7c, 0x44, 0x4f, 0x79, 0x09, 0x0f };
