#define close_width 16
#define close_height 16
static unsigned char close_bits[] = {
   0x00, 0x00, 0xfe, 0x7f, 0x01, 0x80, 0x01, 0x80, 0x31, 0x8c, 0x71, 0x8e,
   0xe1, 0x87, 0xc1, 0x83, 0xc1, 0x83, 0xe1, 0x87, 0x71, 0x8e, 0x31, 0x8c,
   0x01, 0x80, 0x01, 0x80, 0xfe, 0x7f, 0x00, 0x00 };
