#define close_pressed_width 10
#define close_pressed_height 10
static unsigned char close_pressed_bits[] = {
   0x00, 0x00, 0x00, 0x00, 0x04, 0x02, 0x08, 0x01, 0x90, 0x00, 0x60, 0x00,
   0x60, 0x00, 0x90, 0x00, 0x08, 0x01, 0x04, 0x02 };
