#define desk_toggled_width 11
#define desk_toggled_height 11
static unsigned char desk_toggled_bits[] = {
   0x8f, 0x07, 0x8f, 0x07, 0x8f, 0x07, 0x8f, 0x07, 0x00, 0x00, 0x00, 0x00,
   0x00, 0x00, 0x8f, 0x07, 0x8f, 0x07, 0x8f, 0x07, 0x8f, 0x07 };
