#define iconify_width 9
#define iconify_height 9
static unsigned char iconify_bits[] = {
   0x00, 0x00, 0xfe, 0x00, 0xfe, 0x00, 0xc6, 0x00, 0xc6, 0x00, 0xc6, 0x00,
   0xfe, 0x00, 0xfe, 0x00, 0x00, 0x00 };
